<svg width="665" height="157" viewBox="0 0 665 157" fill="none" xmlns="http://www.w3.org/2000/svg">
<path d="M552.519 36.5145C559.083 36.5145 564.404 31.4184 564.404 25.132C564.404 18.8456 559.083 13.7495 552.519 13.7495C545.955 13.7495 540.634 18.8456 540.634 25.132C540.634 31.4184 545.955 36.5145 552.519 36.5145Z" fill="black"/>
<path d="M295.548 128.765C269.391 128.765 250.409 111.202 250.409 87.0227C250.409 62.8435 269.391 45.4177 295.548 45.4177C308.292 45.4177 319.839 49.5608 328.074 57.0743C336.31 64.5879 340.863 75.2539 340.863 87.0227C340.863 98.7914 336.31 109.451 328.074 117.046C319.839 124.64 308.285 128.765 295.548 128.765ZM295.548 63.5662C281.953 63.5662 272.462 73.2104 272.462 87.0102C272.462 100.81 281.953 110.454 295.548 110.454C309.45 110.454 318.785 101.034 318.785 87.0102C318.785 72.9861 309.45 63.5475 295.548 63.5475V63.5662Z" fill="black"/>
<path d="M372.445 15.5447H350.548V127.725H372.445V15.5447Z" fill="black"/>
<path d="M405.419 15.5447H383.522V127.725H405.419V15.5447Z" fill="black"/>
<path d="M460.277 128.765C434.12 128.765 415.138 111.202 415.138 87.0227C415.138 62.8435 434.12 45.4177 460.277 45.4177C473.021 45.4177 484.567 49.5608 492.803 57.0743C501.038 64.5879 505.592 75.2539 505.592 87.0227C505.592 98.7914 501.038 109.451 492.803 117.046C484.567 124.64 473.001 128.765 460.277 128.765ZM460.277 63.5662C446.681 63.5662 437.184 73.2104 437.184 87.0102C437.184 100.81 446.681 110.454 460.277 110.454C474.179 110.454 483.514 101.034 483.514 87.0102C483.514 72.9861 474.179 63.5475 460.277 63.5475V63.5662Z" fill="black"/>
<path d="M563.467 45.4053H541.571V127.724H563.467V45.4053Z" fill="black"/>
<path d="M619.685 128.765C593.534 128.765 574.552 111.202 574.552 87.0227C574.552 62.8435 593.534 45.4177 619.685 45.4177C632.435 45.4177 643.975 49.5608 652.211 57.0743C660.446 64.5879 665 75.2539 665 87.0227C665 98.7914 660.446 109.451 652.211 117.046C643.975 124.64 632.422 128.765 619.685 128.765ZM619.685 63.5662C606.096 63.5662 596.598 73.2104 596.598 87.0102C596.598 100.81 606.096 110.454 619.685 110.454C633.586 110.454 642.928 101.034 642.928 87.0102C642.928 72.9861 633.586 63.5475 619.685 63.5475V63.5662Z" fill="black"/>
<path d="M152.461 157V44.8135H174.358V50.7757C181.521 47.1736 189.504 45.3285 197.594 45.4053C210.344 45.4053 221.884 49.5484 230.12 57.062C238.355 64.5755 242.909 75.2415 242.909 87.0103C242.909 98.779 238.355 109.439 230.12 117.033C221.884 124.628 210.351 128.765 197.594 128.765C189.5 128.84 181.513 126.982 174.358 123.357V157H152.461ZM197.594 63.5476C184.005 63.5476 174.507 73.1918 174.507 86.9916C174.507 100.791 184.005 110.436 197.594 110.436C211.495 110.436 220.837 101.016 220.837 86.9916C220.837 72.9675 211.495 63.5476 197.594 63.5476Z" fill="black"/>
<path d="M520.646 127.718C518.782 127.719 516.96 127.191 515.41 126.2C513.86 125.209 512.652 123.801 511.938 122.152C511.224 120.503 511.037 118.689 511.4 116.938C511.764 115.188 512.661 113.58 513.979 112.318C515.296 111.056 516.975 110.196 518.803 109.849C520.631 109.501 522.525 109.68 524.247 110.363C525.968 111.047 527.439 112.204 528.474 113.689C529.508 115.173 530.06 116.918 530.059 118.703C530.055 121.093 529.062 123.384 527.298 125.074C525.533 126.764 523.141 127.715 520.646 127.718Z" fill="black"/>
<path d="M123.383 24.6711H102.716L113.43 42.4395L123.383 24.6711Z" fill="#FFC127"/>
<path d="M135.04 96.0067L121.074 72.8056L77.0013 0L0 127.718H41.2426C46.7521 127.711 52.1646 126.329 56.9457 123.707C61.7268 121.084 65.7112 117.313 68.5055 112.766L89.5887 77.5467L77.8794 58.1273L52.4314 100.555C50.9882 102.909 48.9288 104.861 46.4565 106.219C43.9843 107.577 41.1848 108.294 38.3347 108.299H35.2058L77.0143 38.9447L130.545 127.718H145.721V113.582L135.086 96.0067H135.04Z" fill="black"/>
</svg>
