<svg width="356" height="104" fill="none" xmlns="http://www.w3.org/2000/svg"><path d="M335.431 2.8l-56.376 44.694 34.636 6.165-31.716 46.601 71.058-61.567-35.529-1.784 17.927-34.11z" fill="#38B6FF"/><path d="M334.214 1.42c-6.327 5.03-12.654 10.018-18.941 15.047a15645.772 15645.772 0 00-30.418 24.132c-2.312 1.826-4.665 3.691-6.976 5.516-.446.365-3.164 3.691-1.136 4.056 10.099 1.785 20.198 3.61 30.297 5.394 1.46.244 2.88.528 4.34.771-.041-.892-.041-1.785-.082-2.636-9.287 13.587-18.535 27.214-27.822 40.801-1.298 1.947-2.637 3.853-3.934 5.8-.528.77-1.014 2.149.081 2.636 1.135.527 2.758-.608 3.528-1.298 8.071-6.935 16.061-13.911 24.092-20.846 12.735-11.032 25.47-22.064 38.165-33.096 2.92-2.555 5.84-5.07 8.801-7.625.892-.77 3.204-4.015.568-4.137-10.343-.527-20.644-1.014-30.987-1.54-1.5-.082-3.001-.163-4.542-.244.324.69.689 1.379 1.014 2.028 5.232-9.978 10.464-19.914 15.696-29.892.73-1.42 1.5-2.839 2.23-4.218.731-1.379-.405-2.23-1.703-1.946-1.703.365-3.123 1.906-3.894 3.406-5.232 9.978-10.464 19.914-15.695 29.892-.731 1.42-1.501 2.839-2.231 4.218-.527.973-.081 1.987 1.014 2.028 10.342.527 20.644 1.014 30.986 1.54 1.501.082 3.001.163 4.543.244.202-1.379.365-2.758.567-4.137-8.03 6.976-16.061 13.912-24.051 20.888a32459.335 32459.335 0 00-38.165 33.095c-2.92 2.555-5.84 5.07-8.801 7.625 1.217.446 2.434.892 3.61 1.338 9.247-13.627 18.535-27.214 27.782-40.842 1.298-1.946 2.636-3.853 3.934-5.8.365-.527 1.136-2.433-.081-2.636-10.099-1.784-20.198-3.61-30.297-5.394-1.46-.243-2.879-.527-4.339-.77-.365 1.338-.771 2.717-1.136 4.055 6.327-5.029 12.654-10.017 18.981-15.047 10.14-8.03 20.279-16.06 30.419-24.132 2.312-1.825 4.664-3.69 6.976-5.516.851-.649 2.514-2.636 1.541-3.772-.973-1.135-3.164.406-3.934 1.014z" fill="#38B6FF"/><path d="M30.716 49.392c-.187.037-.439-.047-.756-.252a13.03 13.03 0 01-.952-.728c-.317-.28-.523-.448-.616-.504-1.213-.635-2.65-1.13-4.312-1.484a24.787 24.787 0 00-4.312-.476 25.357 25.357 0 00-4.564.308c-1.55.224-3.005.7-4.368 1.428-1.344.728-2.427 1.661-3.248 2.8-.616.859-.924 1.764-.924 2.716.019.952.336 1.857.952 2.716 1.941 2.725 5.525 4.237 10.752 4.536 3.77.224 7.112-.43 10.024-1.96.243-.112.663-.383 1.26-.812a4.34 4.34 0 00.392-.28c.168-.15.317-.27.448-.364.15-.093.29-.159.42-.196.056.317.084.681.084 1.092.019.41.019.756 0 1.036 0 .28-.019.681-.056 1.204-.037.504-.065.84-.084 1.008 0 .168-.037.299-.112.392-.13.205-.373.383-.728.532-.336.15-.793.29-1.372.42-.56.13-.859.205-.896.224-1.325.41-2.613.71-3.864.896a7.08 7.08 0 01-.728.028c-.317.019-.56.037-.728.056-3.005.261-5.88.121-8.624-.42a28.074 28.074 0 01-1.428-.28 21.515 21.515 0 01-1.372-.392C6.319 61.18 3.314 58.968 1.988 56c-.261-.597-.43-1.045-.504-1.344-.41-1.83 0-3.659 1.232-5.488.467-.597.765-.97.896-1.12 1.045-1.12 2.175-2.007 3.388-2.66 2.987-1.643 6.683-2.567 11.088-2.772l1.428-.084c.187 0 .448.019.784.056.355.037.579.056.672.056.112 0 .336.01.672.028.336 0 .597.01.784.028 1.176.093 2.604.336 4.284.728.15.037.383.093.7.168.317.056.55.112.7.168a89.96 89.96 0 001.4.42c.784.261 1.223.476 1.316.644.075.168.112.383.112.644.019.336.037.84.056 1.512.019.653.037 1.148.056 1.484.019.523-.093.83-.336.924zm2.362 13.58c-.131-.15-.094-.392.112-.728.224-.336.522-.7.896-1.092.373-.392.578-.607.616-.644a5889.892 5889.892 0 0010.78-16.184c.224-.336.588-.588 1.092-.756a4.971 4.971 0 011.456-.308 21.952 21.952 0 011.708-.056c.69-.019 1.157-.037 1.4-.056.653-.037 1.101-.019 1.344.056.634.187 1.26.812 1.876 1.876A206.757 206.757 0 0065.894 62.3c.261.355.298.607.112.756-.056.037-.159.056-.308.056-.579 0-1.428.019-2.548.056-1.195 0-1.998-.187-2.408-.56-.206-.168-.495-.653-.868-1.456-.374-.803-.794-1.26-1.26-1.372-.542-.075-.971-.103-1.288-.084-.299 0-.747.037-1.344.112a14.74 14.74 0 01-1.26.084c-1.008.037-2.53.056-4.564.056-1.027 0-2.558-.01-4.592-.028a535.224 535.224 0 00-4.564-.028c-.43 0-.794.15-1.092.448-.299.28-.514.597-.644.952-.131.355-.327.71-.588 1.064-.262.355-.57.588-.924.7-.411.13-.84.205-1.288.224-.43.019-.99-.01-1.68-.084a22.35 22.35 0 00-1.316-.084c-.206-.037-.336-.084-.392-.14zm10.164-7.224c.074.15.233.261.476.336.149.056.448.065.896.028 2.986-.392 5.562-.495 7.728-.308.018 0 .382.065 1.092.196.728.112 1.334.15 1.82.112.485-.037.756-.196.812-.476.018-.168-.066-.364-.252-.588a76.22 76.22 0 01-3.528-4.928 30.308 30.308 0 01-.392-.7 15.698 15.698 0 00-.588-1.12c-.206-.373-.43-.747-.672-1.12-.224-.373-.458-.653-.7-.84-.224-.205-.42-.28-.588-.224-.112.037-.262.215-.448.532a10.42 10.42 0 00-.56 1.036c-.168.392-.28.625-.336.7a112.24 112.24 0 01-1.456 2.268 70.396 70.396 0 01-3.08 4.2c-.187.261-.29.457-.308.588 0 .093.028.196.084.308zm26.245 6.328c-.111.448-.074.756.113.924a.97.97 0 00.672.252c.186 0 .457-.056.811-.168.355-.112.626-.159.813-.14 1.717.056 3.266.075 4.647.056 1.027 0 2.474.01 4.34.028 1.886.019 3.594.028 5.124.028a159 159 0 004.34-.056c2.595-.075 4.462-.028 5.6.14.262.037.495.01.7-.084.206-.075.3-.233.28-.476 0-.13-.037-.308-.112-.532-.074-.317-.028-.999.14-2.044.112-.728-.009-1.139-.364-1.232-.149-.037-.382-.01-.7.084-.298.075-.504.112-.616.112-.242 0-.485-.019-.728-.056a4.786 4.786 0 00-.727-.056c-.243 0-.616.01-1.12.028h-1.148c-1.55.019-3.874.028-6.973.028h-6.72c-.13 0-.317-.01-.56-.028a7.45 7.45 0 00-.616-.028c-.186 0-.364.019-.532.056a10.7 10.7 0 00-.307.112c-.15.037-.271.065-.364.084a1.006 1.006 0 01-.337 0 .66.66 0 01-.308-.14c-.149-.15-.205-.392-.167-.728.018-.205.037-.485.055-.84.038-.355.066-.681.085-.98.018-.299.027-.579.027-.84 0-1.307-.009-2.277-.027-2.912-.038-2.52-.047-4.396-.029-5.628 0-1.25.056-2.184.169-2.8.037-.261.046-.457.028-.588-.112-.373-.392-.504-.84-.392-.374.093-.71.14-1.008.14-.728.056-1.54.019-2.436-.112-.691-.13-1.102-.028-1.232.308-.075.224-.066.588.028 1.092.093.504.14.784.14.84.037.504.055 1.26.055 2.268 0 .485-.009 1.213-.028 2.184-.018.97-.028 1.708-.028 2.212 0 3.547-.009 6.197-.027 7.952 0 1.008-.038 1.652-.112 1.932zm31.336 0c-.112.448-.074.756.112.924a.971.971 0 00.672.252c.187 0 .458-.056.812-.168.355-.112.626-.159.812-.14 1.718.056 3.267.075 4.648.056 1.027 0 2.474.01 4.34.028 1.886.019 3.594.028 5.124.028 1.531 0 2.978-.019 4.34-.056 2.595-.075 4.462-.028 5.6.14.262.037.495.01.7-.084.206-.075.299-.233.28-.476 0-.13-.037-.308-.112-.532-.074-.317-.028-.999.14-2.044.112-.728-.009-1.139-.364-1.232-.149-.037-.382-.01-.7.084-.298.075-.504.112-.616.112-.242 0-.485-.019-.728-.056a4.775 4.775 0 00-.728-.056c-.242 0-.616.01-1.12.028h-1.148a632.02 632.02 0 01-6.972.028h-6.72c-.13 0-.317-.01-.56-.028a7.443 7.443 0 00-.616-.028c-.186 0-.364.019-.532.056-.056.019-.158.056-.308.112-.149.037-.27.065-.364.084a1.006 1.006 0 01-.336 0 .664.664 0 01-.308-.14c-.149-.15-.205-.392-.168-.728.019-.205.038-.485.056-.84.038-.355.066-.681.084-.98.019-.299.028-.579.028-.84 0-1.307-.009-2.277-.028-2.912-.037-2.52-.046-4.396-.028-5.628 0-1.25.056-2.184.168-2.8.038-.261.047-.457.028-.588-.112-.373-.392-.504-.84-.392-.373.093-.709.14-1.008.14-.728.056-1.54.019-2.436-.112-.69-.13-1.101-.028-1.232.308-.074.224-.065.588.028 1.092.094.504.14.784.14.84.038.504.056 1.26.056 2.268 0 .485-.009 1.213-.028 2.184-.018.97-.028 1.708-.028 2.212 0 3.547-.009 6.197-.028 7.952 0 1.008-.037 1.652-.112 1.932zm61.38-7.896c.859 1.53.962 3.117.308 4.76-.634 1.643-1.773 2.753-3.416 3.332-.466.168-.98.308-1.54.42-.541.112-1.064.187-1.568.224-.504.037-1.036.065-1.596.084-.56.019-1.101.019-1.624 0a21.913 21.913 0 00-1.568 0c-1.997.037-5.002.037-9.016 0-.56 0-1.465-.028-2.716-.084a52.685 52.685 0 00-3.332-.056c-.952.019-1.848.103-2.688.252-.392.075-.69.084-.896.028-.298-.112-.466-.401-.504-.868-.037-.485 0-1.064.112-1.736.112-.672.168-1.064.168-1.176.019-1.101.028-2.763.028-4.984-.037-4.256-.056-7.448-.056-9.576-.298-.747-.242-1.241.168-1.484.243-.075.486-.112.728-.112.243 0 .588.028 1.036.084.467.037.766.056.896.056.355 0 .719.01 1.092.028h3.108c.224 0 .458.01.7.028.243.019.486.028.728.028 3.976 0 7.962-.028 11.956-.084 2.856-.037 5.012.588 6.468 1.876.448.41.766.784.952 1.12.784 1.363.962 2.837.532 4.424-.112.485-.336.97-.672 1.456.971.448 1.708 1.101 2.212 1.96zm-24.612-7.056c-.13.224-.242.69-.336 1.4-.074.71-.065 1.4.028 2.072.094.653.299.99.616 1.008.206.019.514-.019.924-.112a8.74 8.74 0 01.812-.196c.392-.019.98-.01 1.764.028 1.998.093 5.442.103 10.332.028h1.148c.131-.019.318-.037.56-.056.262-.037.467-.084.616-.14.15-.056.308-.13.476-.224.187-.112.346-.233.476-.364.374-.392.56-.84.56-1.344a1.822 1.822 0 00-.532-1.372 2.568 2.568 0 00-1.288-.7c-.112-.019-.616-.028-1.512-.028h-.224a3.942 3.942 0 00-.532-.028h-.7c-.653 0-1.633-.01-2.94-.028a112.974 112.974 0 00-2.968-.056c-.149 0-.392.01-.728.028h-.728c-.261 0-.793.01-1.596.028-.784.019-1.446.019-1.988 0a22.19 22.19 0 01-1.568-.112c-.298 0-.476.01-.532.028l-.14.14zm19.432 11.172c.355-.485.56-.915.616-1.288.075-.373 0-.672-.224-.896a2.586 2.586 0 00-.812-.588c-.317-.168-.746-.28-1.288-.336a14.641 14.641 0 00-1.456-.14 17.73 17.73 0 00-1.512-.056 247.94 247.94 0 01-6.468.084c-.784 0-1.95-.01-3.5-.028a315.183 315.183 0 00-3.472-.028c-.112 0-.289-.028-.532-.084-.242-.075-.448-.093-.616-.056-.149.019-.289.121-.42.308a.945.945 0 00-.14.42c0 .15.01.29.028.42.019.112.056.27.112.476.056.187.094.308.112.364.038.15.01.513-.084 1.092-.074.56-.056.99.056 1.288.112.28.42.336.924.168a4.946 4.946 0 011.624-.252c.616-.019 1.335.01 2.156.084.84.056 1.4.084 1.68.084h6.972c.243-.019.476-.028.7-.028l-.028.056c.131 0 .392.01.784.028h1.68c.374-.019.672-.047.896-.084.224-.056.476-.121.756-.196.299-.075.56-.177.784-.308.243-.15.467-.317.672-.504zm9.918 3.78c-.112.448-.075.756.112.924.186.168.41.252.672.252.186 0 .457-.056.812-.168.354-.112.625-.159.812-.14 1.717.056 3.266.075 4.648.056 1.026 0 2.473.01 4.34.028 1.885.019 3.593.028 5.124.028 1.53 0 2.977-.019 4.34-.056 2.594-.075 4.461-.028 5.6.14.261.037.494.01.7-.084.205-.075.298-.233.28-.476 0-.13-.038-.308-.112-.532-.075-.317-.028-.999.14-2.044.112-.728-.01-1.139-.364-1.232-.15-.037-.383-.01-.7.084-.299.075-.504.112-.616.112-.243 0-.486-.019-.728-.056a4.795 4.795 0 00-.728-.056c-.243 0-.616.01-1.12.028h-1.148c-1.55.019-3.874.028-6.972.028h-6.72c-.131 0-.318-.01-.56-.028a7.462 7.462 0 00-.616-.028c-.187 0-.364.019-.532.056-.056.019-.159.056-.308.112a8.64 8.64 0 01-.364.084 1.007 1.007 0 01-.336 0 .66.66 0 01-.308-.14c-.15-.15-.206-.392-.168-.728.018-.205.037-.485.056-.84.037-.355.065-.681.084-.98.018-.299.028-.579.028-.84 0-1.307-.01-2.277-.028-2.912-.038-2.52-.047-4.396-.028-5.628 0-1.25.056-2.184.168-2.8.037-.261.046-.457.028-.588-.112-.373-.392-.504-.84-.392a4.21 4.21 0 01-1.008.14c-.728.056-1.54.019-2.436-.112-.691-.13-1.102-.028-1.232.308-.075.224-.066.588.028 1.092.093.504.14.784.14.84.037.504.056 1.26.056 2.268 0 .485-.01 1.213-.028 2.184-.019.97-.028 1.708-.028 2.212 0 3.547-.01 6.197-.028 7.952 0 1.008-.038 1.652-.112 1.932zm31.448-18.732a1.81 1.81 0 00-.14.84c.018.28.065.663.14 1.148.093.485.14.793.14.924.018.43 0 1.055-.056 1.876a46.201 46.201 0 00-.056 1.54c0 2.408.018 4.219.056 5.432.074 3.341.028 5.665-.14 6.972-.038.392-.028.653.028.784.056.13.149.215.28.252.13.056.252.075.364.056.112 0 .261-.028.448-.084.205-.037.336-.056.392-.056.522-.056 1.157-.028 1.904.084.037 0 .149.01.336.028.205.037.364.056.476.056.13.019.28.028.448.028a.935.935 0 00.42-.084.536.536 0 00.28-.252c.056-.168.084-.29.084-.364 0-.093-.019-.243-.056-.448a2.904 2.904 0 01-.056-.392c-.019-.15-.028-.887-.028-2.212l-.084-4.424c-.075-3.659-.056-6.608.056-8.848 0-.13.037-.41.112-.84.074-.448.112-.784.112-1.008a2.2 2.2 0 00-.112-.812c-.112-.168-.252-.261-.42-.28-.168-.037-.383-.019-.644.056-.243.075-.411.112-.504.112a3.278 3.278 0 01-.616 0 9.495 9.495 0 00-.504-.028c-.15 0-.43-.047-.84-.14a6.48 6.48 0 00-.952-.168c-.224-.019-.476.028-.756.14l-.112.112zm9.652 3.948a3.55 3.55 0 01-.168-.224c-.056-.13-.084-.336-.084-.616.038-.56.075-1.4.112-2.52 0-.187.038-.327.112-.42.094-.093.271-.14.532-.14 6.086 0 15.251.019 27.496.056.168 0 .29.037.364.112.056.056.084.168.084.336v2.912c0 .317-.056.523-.168.616-.093.093-.27.14-.532.14-1.12-.019-2.8-.037-5.04-.056l-5.012-.084c-.672 0-1.11.14-1.316.42-.13.168-.196.485-.196.952.019 3.024.066 7.56.14 13.608 0 .205-.037.345-.112.42-.074.075-.196.112-.364.112-1.064.13-2.184.168-3.36.112-.728 0-1.204-.187-1.428-.56-.074-.168-.112-.448-.112-.84.112-5.675.206-9.977.28-12.908 0-.653-.158-1.064-.476-1.232-.112-.037-.289-.056-.532-.056-1.978.019-5.012.065-9.1.14-.541 0-.914-.093-1.12-.28zm42.451 11.62c.056.13.196.224.42.28.224.056.448.084.672.084.224 0 .485-.01.784-.028.299-.037.476-.056.532-.056.299-.019.765-.047 1.4-.084a61.244 61.244 0 011.4-.112c2.24-.075 3.911-.112 5.012-.112 1.885-.019 3.761-.019 5.628 0 .635 0 1.568.019 2.8.056h.784c.392-.019.653-.019.784 0 .504.037.775.308.812.812 0 1.008.009 1.764.028 2.268.037.616-.196.98-.7 1.092-.075.056-.355.056-.84 0a18.622 18.622 0 00-.868-.056h-3.248c-2.837 0-4.965-.01-6.384-.028-4.667 0-8.167-.01-10.5-.028h-6.636c-.149 0-.457.019-.924.056-.448.037-.84.047-1.176.028a2 2 0 01-.84-.224c-.411-.205-.569-.485-.476-.84.093-.373.261-.71.504-1.008a3.78 3.78 0 01.784-.7l4.564-2.856c7.131-4.48 12.413-7.635 15.848-9.464.224-.15.317-.29.28-.42-.019-.112-.159-.168-.42-.168l-10.136.084c-.373 0-2.044.037-5.012.112-2.968.075-4.639.056-5.012-.056a3.222 3.222 0 01-.42-.112c-.205-.15-.289-.392-.252-.728 0-.019.047-.187.14-.504.112-.317.159-.56.14-.728a2.315 2.315 0 00-.14-.448 33.547 33.547 0 01-.14-.476 1.973 1.973 0 01-.056-.476.815.815 0 01.196-.448c.205-.224.56-.317 1.064-.28l8.736.084c6.552.056 13.449.01 20.692-.14.355 0 .588.084.7.252.037.056.056.196.056.42 0 .075-.009.27-.028.588 0 .317-.009.55-.028.7-.019.15-.056.345-.112.588a1.555 1.555 0 01-.28.616c-.131.15-.299.27-.504.364a44.6 44.6 0 00-3.08 1.708 95.86 95.86 0 00-3.472 2.184 98.611 98.611 0 01-2.968 1.848 3280.91 3280.91 0 00-9.856 5.964.818.818 0 00-.224.196.475.475 0 00-.028.196z" fill="#fff"/></svg>