<svg width="25" height="25" viewBox="0 0 28 22" fill="none" xmlns="http://www.w3.org/2000/svg">
<path d="M2.48098 21.1785C1.8878 21.1785 1.38155 20.9688 0.962229 20.5495C0.542911 20.1302 0.333252 19.624 0.333252 19.0308C0.333252 18.4376 0.542911 17.9313 0.962229 17.512C1.38155 17.0927 1.8878 16.8831 2.48098 16.8831C2.58325 16.8831 2.68552 16.8882 2.7878 16.8984C2.89007 16.9086 3.02302 16.9342 3.18666 16.9751L9.32302 10.8387C9.28212 10.6751 9.25655 10.5421 9.24632 10.4399C9.23609 10.3376 9.23098 10.2353 9.23098 10.1331C9.23098 9.53987 9.44064 9.03362 9.85996 8.6143C10.2793 8.19498 10.7855 7.98533 11.3787 7.98533C11.9719 7.98533 12.4781 8.19498 12.8975 8.6143C13.3168 9.03362 13.5264 9.53987 13.5264 10.1331C13.5264 10.174 13.4958 10.4092 13.4344 10.8387L16.8094 14.2137C16.973 14.1728 17.106 14.1473 17.2083 14.137C17.3105 14.1268 17.4128 14.1217 17.5151 14.1217C17.6173 14.1217 17.7196 14.1268 17.8219 14.137C17.9242 14.1473 18.0571 14.1728 18.2208 14.2137L23.1298 9.30464C23.0889 9.14101 23.0634 9.00805 23.0531 8.90578C23.0429 8.80351 23.0378 8.70123 23.0378 8.59896C23.0378 8.00578 23.2475 7.49953 23.6668 7.08021C24.0861 6.66089 24.5923 6.45123 25.1855 6.45123C25.7787 6.45123 26.285 6.66089 26.7043 7.08021C27.1236 7.49953 27.3333 8.00578 27.3333 8.59896C27.3333 9.19214 27.1236 9.69839 26.7043 10.1177C26.285 10.537 25.7787 10.7467 25.1855 10.7467C25.0833 10.7467 24.981 10.7416 24.8787 10.7313C24.7764 10.7211 24.6435 10.6956 24.4798 10.6546L19.5708 15.5637C19.6117 15.7274 19.6372 15.8603 19.6475 15.9626C19.6577 16.0649 19.6628 16.1671 19.6628 16.2694C19.6628 16.8626 19.4531 17.3688 19.0338 17.7882C18.6145 18.2075 18.1083 18.4171 17.5151 18.4171C16.9219 18.4171 16.4156 18.2075 15.9963 17.7882C15.577 17.3688 15.3673 16.8626 15.3673 16.2694C15.3673 16.1671 15.3725 16.0649 15.3827 15.9626C15.3929 15.8603 15.4185 15.7274 15.4594 15.5637L12.0844 12.1887C11.9208 12.2296 11.7878 12.2552 11.6855 12.2654C11.5833 12.2757 11.481 12.2808 11.3787 12.2808C11.3378 12.2808 11.1026 12.2501 10.673 12.1887L4.53666 18.3251C4.57757 18.4887 4.60314 18.6217 4.61337 18.724C4.62359 18.8262 4.62871 18.9285 4.62871 19.0308C4.62871 19.624 4.41905 20.1302 3.99973 20.5495C3.58041 20.9688 3.07416 21.1785 2.48098 21.1785ZM4.01507 7.61714L3.40143 6.26714L2.05143 5.65351L3.40143 5.03987L4.01507 3.68987L4.62871 5.03987L5.97871 5.65351L4.62871 6.26714L4.01507 7.61714ZM17.5151 6.05237L16.5639 4.02737L14.5389 3.07623L16.5639 2.1251L17.5151 0.100098L18.4662 2.1251L20.4912 3.07623L18.4662 4.02737L17.5151 6.05237Z" fill="white"/>
</svg>
