<svg width="25" height="25" viewBox="0 0 27 27" fill="none" xmlns="http://www.w3.org/2000/svg">
<path d="M13.5001 0C6.05614 0 0 6.05606 0 13.4999C0 20.9438 6.05602 27 13.4999 27C20.944 27 27 20.9438 27 13.4999C27.0001 6.05606 20.9441 0 13.5001 0ZM13.5001 25.152C7.07517 25.152 1.8482 19.9248 1.8482 13.4999C1.84807 7.07507 7.07517 1.84805 13.5001 1.84805C19.925 1.84805 25.152 7.07507 25.152 13.4999C25.152 19.9249 19.925 25.152 13.5001 25.152Z" fill="white"/>
<path d="M20.4656 13.3197H14.0527V6.31416C14.0527 5.80385 13.6391 5.39014 13.1286 5.39014C12.6183 5.39014 12.2046 5.80385 12.2046 6.31416V14.2438C12.2046 14.7541 12.6183 15.1678 13.1286 15.1678H20.4656C20.976 15.1678 21.3896 14.7541 21.3896 14.2438C21.3896 13.7335 20.9759 13.3197 20.4656 13.3197Z" fill="white"/>
</svg>
