<svg width="180" height="50" viewBox="0 0 180 50" fill="none" xmlns="http://www.w3.org/2000/svg">
<path d="M71.9618 19.6388V14.5133H66.4018V40.2362H71.9618V26.7946C72.1155 25.3117 72.5665 24.0224 73.3161 22.9182C74.0571 21.8141 75.0729 20.968 76.3463 20.388C77.6274 19.7998 79.1263 19.55 80.8589 19.6388V14.3194C78.8203 14.3194 77.0475 14.7713 75.5404 15.6733C74.0333 16.5688 72.8405 17.8897 71.9618 19.6388ZM56.0878 8.42095H50.5758V15.4802H46.9496V19.6388H50.5758V30.9825C50.5758 36.0725 54.74 40.2362 59.8295 40.2362H61.2751V34.7242H60.0178C57.8563 34.7242 56.0878 32.9553 56.0878 30.7942V19.6392H62.2598V15.4807H56.0878V8.42095V8.42095ZM104.224 18.4295C103.249 17.1081 101.96 16.0927 100.356 15.3833C98.7521 14.6821 96.8178 14.3281 94.5615 14.3194C92.6428 14.3363 90.8947 14.6661 89.3071 15.295C87.7195 15.9239 86.3496 16.8181 85.1975 17.9702C84.0371 19.1228 83.142 20.5009 82.514 22.0963C81.8855 23.6921 81.5626 25.4727 81.5548 27.423C81.5631 29.3651 81.8777 31.1297 82.4975 32.7173C83.1186 34.3048 84.0046 35.6747 85.1572 36.8269C86.3098 37.9795 87.6957 38.8659 89.3075 39.487C90.9198 40.1072 92.716 40.4214 94.7069 40.4297C96.939 40.4214 98.9537 40.0423 100.751 39.2849C102.547 38.5361 104.079 37.464 105.344 36.0781L102.395 32.935C101.444 33.9101 100.348 34.6515 99.1152 35.1592C97.8821 35.6747 96.552 35.9331 95.1419 35.9331C93.7803 35.9249 92.555 35.6669 91.4591 35.1432C90.3714 34.6277 89.4525 33.8941 88.7189 32.935C87.9779 31.9758 87.462 30.8315 87.1638 29.5018H106.601C106.77 27.1728 106.665 25.0776 106.278 23.216C105.892 21.3467 105.207 19.7513 104.224 18.4295ZM87.0664 25.4407C87.2841 24.0626 87.7273 22.8784 88.3964 21.8868C89.0729 20.8874 89.9355 20.1222 90.9916 19.5821C92.0468 19.0423 93.2479 18.7762 94.6091 18.7684C96.0197 18.7762 97.2445 19.0423 98.292 19.5738C99.3398 20.1058 100.162 20.8714 100.758 21.8626C101.362 22.8537 101.693 24.0466 101.765 25.4407H87.0664ZM150.917 27.1815C150.917 28.3094 150.756 29.3573 150.441 30.316C150.126 31.2829 149.659 32.1213 149.055 32.8467C148.451 33.5639 147.71 34.136 146.839 34.5477C145.969 34.958 144.97 35.1757 143.857 35.2081C142.608 35.1999 141.544 34.9497 140.65 34.4503C139.756 33.9508 139.071 33.2332 138.587 32.307C138.112 31.3799 137.87 30.2675 137.862 28.9708V14.5133H132.301V30.5177C132.309 32.5727 132.688 34.3377 133.437 35.8201C134.187 37.2948 135.258 38.4309 136.661 39.2208C138.071 40.0185 139.755 40.4214 141.729 40.4297C143.841 40.4132 145.686 39.9869 147.25 39.1403C148.813 38.3019 150.038 36.9888 150.916 35.2081V40.2362H156.477V14.5133H150.916V27.1815H150.917ZM179.258 29.4616C178.775 28.5678 178.122 27.8342 177.316 27.2538C176.511 26.6816 175.623 26.2055 174.656 25.8354C173.682 25.4649 172.714 25.1425 171.747 24.8603C170.781 24.5863 169.885 24.2959 169.072 24.0059C168.266 23.7081 167.613 23.3454 167.121 22.9178C166.629 22.4984 166.38 21.9513 166.364 21.2826C166.372 20.6693 166.533 20.1781 166.856 19.7993C167.178 19.4206 167.629 19.1466 168.194 18.9774C168.758 18.8 169.402 18.7195 170.136 18.7195C170.901 18.7195 171.707 18.8168 172.561 18.9934C173.407 19.1791 174.262 19.4362 175.107 19.7751C175.962 20.1131 176.768 20.5243 177.533 20.9922L179.564 16.8821C178.782 16.3338 177.904 15.8585 176.921 15.4716C175.938 15.0851 174.907 14.7869 173.827 14.5856C172.747 14.3761 171.659 14.2714 170.571 14.2714C169.33 14.2714 168.137 14.4081 167.009 14.6986C165.881 14.989 164.874 15.4318 163.987 16.036C163.094 16.6406 162.4 17.4058 161.884 18.349C161.369 19.2916 161.103 20.4122 161.095 21.7176C161.103 23.0308 161.344 24.1271 161.828 25.0053C162.312 25.8839 162.949 26.6011 163.746 27.1573C164.544 27.713 165.43 28.164 166.381 28.5189C167.34 28.873 168.299 29.1881 169.258 29.4616C170.217 29.7356 171.103 30.026 171.901 30.3398C172.707 30.6544 173.352 31.041 173.835 31.5088C174.318 31.9758 174.569 32.5801 174.584 33.3215C174.576 33.9664 174.391 34.4901 174.02 34.8926C173.65 35.3038 173.15 35.602 172.521 35.7955C171.893 35.9807 171.176 36.0777 170.378 36.0777C169.427 36.0777 168.436 35.9483 167.396 35.6903C166.356 35.4323 165.341 35.0701 164.366 34.5944C163.391 34.1192 162.529 33.547 161.771 32.8865L159.789 36.8507C160.651 37.6246 161.651 38.2773 162.77 38.8088C163.899 39.3407 165.091 39.7437 166.348 40.0176C167.606 40.292 168.871 40.4288 170.137 40.4288C171.442 40.4288 172.683 40.2756 173.86 39.9774C175.036 39.6709 176.092 39.2117 177.011 38.5828C177.929 37.9626 178.654 37.1653 179.186 36.2058C179.718 35.2467 179.992 34.1027 180 32.7887C179.991 31.4686 179.749 30.3567 179.258 29.4616ZM110.538 40.2362H116.099V4.35938H110.538V40.2362ZM121.827 40.2362H127.388V4.35938H121.827V40.2362Z" fill="#5DD077"/>
<path fill-rule="evenodd" clip-rule="evenodd" d="M26.2535 16.0368C26.2548 17.2236 26.2535 18.3853 26.2535 19.5721C28.7916 19.85 31.3296 20.1382 33.8677 20.4157C33.8698 22.7226 33.8677 21.2268 33.872 23.8423C33.8724 24.6006 33.3093 25.3524 32.4476 25.3325C29.8827 25.2658 27.3161 25.2104 24.7503 25.1507C24.7387 21.0536 24.7425 16.9557 24.7378 12.8591C24.7365 9.47312 21.4665 6.47671 18.2096 5.51888C12.1237 3.7283 6.08501 1.79317 0 0C0 2.93538 0 5.87119 0 8.80657C0 14.1692 5.67556 17.4474 10.7655 18.0126C14.0433 18.3762 17.3275 18.5909 20.6048 18.9458C20.6061 20.9826 20.6083 23.0186 20.6091 25.055C19.3241 25.0256 18.0395 24.9962 16.7553 24.9663C12.7803 24.8707 8.37332 27.5559 8.37419 31.5906C8.37722 37.4471 8.38284 43.304 8.38284 49.1609C11.6675 48.1979 14.9535 47.2323 18.2377 46.2671C21.4847 45.3149 24.7646 42.3085 24.7607 38.9325C24.7603 37.2125 24.7573 35.164 24.756 33.4444C24.7555 32.4121 24.7547 31.3798 24.7547 30.3484C23.374 30.4168 21.9924 30.3796 20.6117 30.4475C20.6117 33.2202 20.6173 36.3235 20.6173 39.0966C20.6173 40.5262 19.5578 42.0029 18.0408 42.376C16.654 42.718 15.2677 43.059 13.8818 43.4005C13.8814 39.3688 13.8758 35.3362 13.874 31.305C13.8732 29.9264 15.4053 28.9781 16.7562 28.9482C21.9868 28.8201 27.2191 28.6938 32.4498 28.5674C35.0294 28.5072 36.7836 26.2998 36.7801 23.9708C36.7771 21.8833 36.7767 19.7937 36.7715 17.7062C33.2656 17.1522 29.7602 16.5895 26.2535 16.0368ZM10.8646 13.5953C8.57458 13.2326 6.99393 12.086 6.99393 9.77479C6.99393 8.74814 6.99349 7.72193 6.99349 6.69615C10.6681 7.60117 14.341 8.50879 18.0148 9.41425C19.2557 9.72026 20.5979 11.0135 20.5983 12.2981C20.6018 13.3005 20.6018 14.1385 20.6026 15.14C17.3569 14.625 14.1103 14.1099 10.8646 13.5953Z" fill="#5DD077"/>
</svg>
