<svg width="180" height="50" viewBox="0 0 180 50" fill="none" xmlns="http://www.w3.org/2000/svg">
<path d="M71.9619 19.6374V14.512H66.4019V40.2349H71.9619V26.7932C72.1156 25.3104 72.5665 24.021 73.3162 22.9169C74.0572 21.8128 75.073 20.9666 76.3464 20.3866C77.6275 19.7984 79.1264 19.5487 80.8589 19.6374V14.3181C78.8204 14.3181 77.0475 14.7699 75.5405 15.6719C74.0334 16.5674 72.8405 17.8884 71.9619 19.6374ZM56.0878 8.41961H50.5759V15.4789H46.9497V19.6374H50.5759V30.9812C50.5759 36.0711 54.74 40.2349 59.8295 40.2349H61.2752V34.7229H60.0178C57.8563 34.7229 56.0878 32.954 56.0878 30.7929V19.6379H62.2598V15.4793H56.0878V8.41961ZM104.224 18.4281C103.249 17.1067 101.96 16.0913 100.356 15.3819C98.7521 14.6808 96.8179 14.3267 94.5616 14.3181C92.6429 14.335 90.8947 14.6648 89.3071 15.2936C87.7196 15.9225 86.3497 16.8167 85.1975 17.9689C84.0371 19.1215 83.1421 20.4996 82.514 22.095C81.8856 23.6908 81.5627 25.4714 81.5549 27.4217C81.5631 29.3637 81.8778 31.1283 82.4976 32.7159C83.1187 34.3035 84.0047 35.6734 85.1573 36.8255C86.3099 37.9781 87.6957 38.8646 89.3076 39.4856C90.9198 40.1059 92.716 40.4201 94.707 40.4283C96.939 40.4201 98.9538 40.041 100.751 39.2835C102.548 38.5347 104.079 37.4626 105.344 36.0768L102.395 32.9336C101.444 33.9088 100.348 34.6502 99.1153 35.1579C97.8822 35.6734 96.5521 35.9318 95.142 35.9318C93.7803 35.9235 92.555 35.6656 91.4591 35.1419C90.3714 34.6264 89.4526 33.8928 88.7189 32.9336C87.9779 31.9745 87.462 30.8301 87.1638 29.5005H106.601C106.77 27.1715 106.665 25.0762 106.278 23.2147C105.892 21.3453 105.207 19.75 104.224 18.4281ZM87.0664 25.4394C87.2841 24.0613 87.7273 22.8771 88.3965 21.8855C89.073 20.8861 89.9356 20.1209 90.9917 19.5807C92.0469 19.041 93.248 18.7748 94.6092 18.767C96.0197 18.7748 97.2446 19.041 98.292 19.5725C99.3399 20.1044 100.162 20.8701 100.758 21.8612C101.362 22.8524 101.693 24.0453 101.765 25.4394H87.0664ZM150.917 27.1802C150.917 28.3081 150.756 29.3559 150.442 30.3146C150.126 31.2816 149.659 32.1199 149.055 32.8453C148.451 33.5625 147.71 34.1347 146.839 34.5463C145.969 34.9566 144.97 35.1743 143.858 35.2068C142.608 35.1986 141.545 34.9484 140.65 34.4489C139.756 33.9495 139.071 33.2318 138.587 32.3056C138.112 31.3785 137.87 30.2662 137.862 28.9694V14.512H132.301V30.5163C132.309 32.5714 132.688 34.3364 133.437 35.8188C134.187 37.2934 135.258 38.4296 136.661 39.2195C138.071 40.0171 139.755 40.4201 141.729 40.4283C143.841 40.4119 145.686 39.9855 147.25 39.139C148.813 38.3006 150.038 36.9874 150.916 35.2068V40.2349H156.477V14.512H150.916V27.1802H150.917ZM179.258 29.4603C178.775 28.5665 178.122 27.8329 177.316 27.2524C176.511 26.6803 175.623 26.2042 174.656 25.8341C173.682 25.4636 172.714 25.1411 171.747 24.8589C170.781 24.585 169.886 24.2946 169.072 24.0046C168.266 23.7068 167.613 23.3441 167.122 22.9165C166.629 22.4971 166.38 21.95 166.364 21.2813C166.372 20.668 166.533 20.1767 166.856 19.798C167.178 19.4193 167.629 19.1453 168.194 18.9761C168.758 18.7986 169.402 18.7181 170.136 18.7181C170.901 18.7181 171.707 18.8155 172.561 18.9921C173.407 19.1778 174.262 19.4349 175.107 19.7738C175.962 20.1118 176.768 20.523 177.533 20.9908L179.564 16.8808C178.782 16.3324 177.904 15.8572 176.921 15.4702C175.938 15.0837 174.907 14.7855 173.827 14.5843C172.747 14.3748 171.659 14.27 170.571 14.27C169.33 14.27 168.137 14.4068 167.009 14.6972C165.882 14.9876 164.874 15.4304 163.988 16.0346C163.094 16.6393 162.4 17.4045 161.884 18.3476C161.369 19.2903 161.103 20.4109 161.095 21.7163C161.103 23.0294 161.344 24.1258 161.828 25.0039C162.312 25.8826 162.949 26.5998 163.746 27.1559C164.545 27.7117 165.431 28.1627 166.381 28.5176C167.34 28.8716 168.299 29.1867 169.258 29.4603C170.217 29.7342 171.103 30.0247 171.901 30.3384C172.707 30.6531 173.352 31.0396 173.835 31.5075C174.318 31.9745 174.569 32.5787 174.584 33.3201C174.576 33.965 174.391 34.4887 174.02 34.8913C173.65 35.3024 173.15 35.6007 172.521 35.7941C171.893 35.9794 171.176 36.0763 170.378 36.0763C169.427 36.0763 168.436 35.9469 167.396 35.689C166.356 35.431 165.341 35.0687 164.366 34.5931C163.391 34.1178 162.529 33.5456 161.771 32.8852L159.789 36.8493C160.651 37.6232 161.651 38.2759 162.77 38.8074C163.899 39.3394 165.091 39.7423 166.349 40.0163C167.606 40.2907 168.871 40.4275 170.137 40.4275C171.442 40.4275 172.683 40.2742 173.86 39.976C175.036 39.6696 176.092 39.2104 177.011 38.5815C177.929 37.9613 178.654 37.164 179.186 36.2044C179.718 35.2453 179.992 34.1014 180 32.7873C179.991 31.4672 179.749 30.3553 179.258 29.4603ZM110.538 40.2349H116.099V4.35803H110.538V40.2349ZM121.827 40.2349H127.388V4.35803H121.827V40.2349Z" fill="#5B657C"/>
<path fill-rule="evenodd" clip-rule="evenodd" d="M26.2535 16.0368C26.2548 17.2236 26.2535 18.3853 26.2535 19.5721C28.7916 19.85 31.3296 20.1382 33.8677 20.4157C33.8698 22.7226 33.8677 21.2268 33.872 23.8423C33.8724 24.6006 33.3093 25.3524 32.4476 25.3325C29.8827 25.2658 27.3161 25.2104 24.7503 25.1507C24.7387 21.0536 24.7425 16.9557 24.7378 12.8591C24.7365 9.47311 21.4665 6.47671 18.2096 5.51888C12.1237 3.7283 6.08501 1.79317 0 0C0 2.93538 0 5.87119 0 8.80657C0 14.1692 5.67556 17.4474 10.7655 18.0126C14.0433 18.3762 17.3275 18.5909 20.6048 18.9458C20.6061 20.9826 20.6083 23.0186 20.6091 25.055C19.3241 25.0256 18.0395 24.9962 16.7553 24.9663C12.7803 24.8707 8.37332 27.5559 8.37419 31.5906C8.37722 37.4471 8.38284 43.304 8.38284 49.1609C11.6675 48.1979 14.9535 47.2323 18.2377 46.2671C21.4847 45.3149 24.7646 42.3085 24.7607 38.9325C24.7603 37.2125 24.7573 35.164 24.756 33.4444C24.7555 32.4121 24.7547 31.3798 24.7547 30.3484C23.374 30.4168 21.9924 30.3796 20.6117 30.4475C20.6117 33.2202 20.6173 36.3235 20.6173 39.0966C20.6173 40.5262 19.5578 42.0029 18.0408 42.376C16.654 42.718 15.2677 43.059 13.8818 43.4005C13.8814 39.3688 13.8758 35.3362 13.874 31.305C13.8732 29.9264 15.4053 28.9781 16.7562 28.9482C21.9868 28.8201 27.2191 28.6938 32.4498 28.5674C35.0294 28.5072 36.7836 26.2998 36.7801 23.9708C36.7771 21.8833 36.7766 19.7937 36.7715 17.7062C33.2656 17.1522 29.7602 16.5895 26.2535 16.0368ZM10.8646 13.5953C8.57458 13.2326 6.99393 12.086 6.99393 9.77479C6.99393 8.74814 6.99349 7.72193 6.99349 6.69615C10.6681 7.60117 14.341 8.50879 18.0148 9.41425C19.2557 9.72025 20.5979 11.0135 20.5983 12.2981C20.6018 13.3005 20.6018 14.1385 20.6026 15.14C17.3569 14.625 14.1103 14.1099 10.8646 13.5953Z" fill="#5DD077"/>
</svg>
