<svg width="25" height="25" viewBox="0 0 27 28" fill="none" xmlns="http://www.w3.org/2000/svg">
<path d="M15.774 27.6132H11.2179C10.9647 27.6132 10.7404 27.5326 10.5448 27.3716C10.3492 27.2105 10.2284 27.0034 10.1824 26.7503L9.63009 23.2641C9.19289 23.103 8.73267 22.8844 8.24944 22.6083C7.7662 22.3322 7.3405 22.0445 6.97233 21.7454L3.76229 23.2296C3.50917 23.3446 3.25605 23.3619 3.00293 23.2814C2.74981 23.2008 2.55422 23.034 2.41615 22.7809L0.138066 18.7424C5.14335e-08 18.5123 -0.0345165 18.2707 0.0345165 18.0176C0.103549 17.7645 0.241615 17.5574 0.448714 17.3963L3.41713 15.2218C3.37111 15.0147 3.34234 14.7788 3.33084 14.5142C3.31933 14.2495 3.31358 14.0137 3.31358 13.8066C3.31358 13.5995 3.31933 13.3636 3.33084 13.099C3.34234 12.8344 3.37111 12.5985 3.41713 12.3914L0.448714 10.2169C0.241615 10.0558 0.103549 9.8487 0.0345165 9.59558C-0.0345165 9.34246 5.14335e-08 9.10084 0.138066 8.87073L2.41615 4.83231C2.55422 4.57918 2.74981 4.41235 3.00293 4.33182C3.25605 4.25128 3.50917 4.26854 3.76229 4.38359L6.97233 5.8678C7.3405 5.56866 7.7662 5.28102 8.24944 5.00489C8.73267 4.72876 9.19289 4.52166 9.63009 4.38359L10.1824 0.862912C10.2284 0.609791 10.3492 0.402692 10.5448 0.241615C10.7404 0.0805384 10.9647 0 11.2179 0H15.774C16.0271 0 16.2515 0.0805384 16.4471 0.241615C16.6427 0.402692 16.7635 0.609791 16.8095 0.862912L17.3618 4.34907C17.799 4.51015 18.265 4.723 18.7597 4.98763C19.2544 5.25226 19.6744 5.54565 20.0196 5.8678L23.2296 4.38359C23.4827 4.26854 23.7358 4.25128 23.9889 4.33182C24.2421 4.41235 24.4377 4.57918 24.5757 4.83231L26.8538 8.83621C26.9919 9.06632 27.0321 9.31369 26.9746 9.57832C26.9171 9.84295 26.7733 10.0558 26.5432 10.2169L23.5747 12.3224C23.6208 12.5525 23.6495 12.7999 23.661 13.0645C23.6725 13.3291 23.6783 13.5765 23.6783 13.8066C23.6783 14.0367 23.6725 14.2783 23.661 14.5314C23.6495 14.7846 23.6208 15.0262 23.5747 15.2563L26.5432 17.3963C26.7503 17.5574 26.8883 17.7645 26.9574 18.0176C27.0264 18.2707 26.9919 18.5123 26.8538 18.7424L24.5757 22.7809C24.4377 23.034 24.2421 23.2008 23.9889 23.2814C23.7358 23.3619 23.4827 23.3446 23.2296 23.2296L20.0196 21.7454C19.6514 22.0445 19.2314 22.3379 18.7597 22.6255C18.288 22.9132 17.822 23.126 17.3618 23.2641L16.8095 26.7503C16.7635 27.0034 16.6427 27.2105 16.4471 27.3716C16.2515 27.5326 16.0271 27.6132 15.774 27.6132V27.6132ZM13.4959 18.2937C14.7385 18.2937 15.797 17.8565 16.6715 16.9821C17.5459 16.1077 17.9831 15.0492 17.9831 13.8066C17.9831 12.564 17.5459 11.5055 16.6715 10.6311C15.797 9.75665 14.7385 9.31945 13.4959 9.31945C12.2533 9.31945 11.1948 9.75665 10.3204 10.6311C9.44601 11.5055 9.0088 12.564 9.0088 13.8066C9.0088 15.0492 9.44601 16.1077 10.3204 16.9821C11.1948 17.8565 12.2533 18.2937 13.4959 18.2937ZM13.4959 16.2227C12.8286 16.2227 12.2591 15.9869 11.7874 15.5152C11.3156 15.0434 11.0798 14.4739 11.0798 13.8066C11.0798 13.1393 11.3156 12.5697 11.7874 12.098C12.2591 11.6263 12.8286 11.3904 13.4959 11.3904C14.1633 11.3904 14.7328 11.6263 15.2045 12.098C15.6762 12.5697 15.9121 13.1393 15.9121 13.8066C15.9121 14.4739 15.6762 15.0434 15.2045 15.5152C14.7328 15.9869 14.1633 16.2227 13.4959 16.2227ZM11.9772 25.5422H15.0147L15.4979 21.6763C16.2573 21.4923 16.9763 21.2046 17.6552 20.8134C18.334 20.4222 18.9495 19.9505 19.5018 19.3983L23.1605 20.986L24.5412 18.5008L21.2967 16.1192C21.3887 15.728 21.4635 15.3426 21.521 14.9629C21.5785 14.5832 21.6073 14.1978 21.6073 13.8066C21.6073 13.4154 21.5843 13.03 21.5383 12.6503C21.4923 12.2706 21.4117 11.8852 21.2967 11.494L24.5412 9.11235L23.1605 6.62716L19.5018 8.21492C18.9726 7.61663 18.3743 7.11614 17.7069 6.71345C17.0396 6.31076 16.3033 6.05189 15.4979 5.93683L15.0147 2.07099H11.9772L11.494 5.93683C10.7116 6.09791 9.98101 6.37404 9.30219 6.76523C8.62336 7.15641 8.01933 7.63964 7.49007 8.21492L3.83133 6.62716L2.45067 9.11235L5.69522 11.494C5.60317 11.8852 5.52839 12.2706 5.47086 12.6503C5.41333 13.03 5.38457 13.4154 5.38457 13.8066C5.38457 14.1978 5.41333 14.5832 5.47086 14.9629C5.52839 15.3426 5.60317 15.728 5.69522 16.1192L2.45067 18.5008L3.83133 20.986L7.49007 19.3983C8.04234 19.9505 8.65788 20.4222 9.3367 20.8134C10.0155 21.2046 10.7346 21.4923 11.494 21.6763L11.9772 25.5422Z" fill="white"/>
</svg>
