<svg width="25" height="25" viewBox="0 0 28 25" fill="none" xmlns="http://www.w3.org/2000/svg">
<path d="M18.8917 10.4625H20.2417V8.775H22.2667V7.425H20.2417V5.7375H18.8917V10.4625ZM6.06675 8.775H16.8667V7.425H6.06675V8.775ZM8.09175 15.8625H9.44175V11.1375H8.09175V12.825H6.06675V14.175H8.09175V15.8625ZM11.4667 14.175H22.2667V12.825H11.4667V14.175ZM10.1167 24.3C9.82425 24.3 9.58237 24.2044 9.39112 24.0131C9.19987 23.8219 9.10425 23.58 9.10425 23.2875V21.6H2.69175C2.12925 21.6 1.65112 21.4031 1.25737 21.0094C0.863623 20.6156 0.666748 20.1375 0.666748 19.575V2.025C0.666748 1.4625 0.863623 0.984375 1.25737 0.590625C1.65112 0.196875 2.12925 0 2.69175 0H25.6417C26.2042 0 26.6824 0.196875 27.0761 0.590625C27.4699 0.984375 27.6667 1.4625 27.6667 2.025V19.575C27.6667 20.1375 27.4699 20.6156 27.0761 21.0094C26.6824 21.4031 26.2042 21.6 25.6417 21.6H19.2292V23.2875C19.2292 23.58 19.1336 23.8219 18.9424 24.0131C18.7511 24.2044 18.5092 24.3 18.2167 24.3H10.1167ZM2.69175 19.575H25.6417V2.025H2.69175V19.575ZM2.69175 19.575V2.025V19.575Z" fill="white"/>
</svg>
