<svg xmlns="http://www.w3.org/2000/svg" viewBox="0 0 512 512"><g id="bc603100-0e93-4acd-b0dd-1a499b620af9" data-name="Layer 1"><path d="M319,260.59v82.06a17.15,17.15,0,0,1-17.12,17.13H170L156.9,370.52A151.48,151.48,0,0,0,404.35,286.6l-31.63-26Z" fill="#e7f2d0"/><path d="M223.68,128.24a17.14,17.14,0,0,1,17.13-17.12h59.38A151.6,151.6,0,0,0,111.58,210.3h112.1Z" fill="#e7f2d0"/><path d="M109.58,214.3a13.14,13.14,0,0,0-13.13,13.13V342.65a13.14,13.14,0,0,0,13.13,13.13h14a2,2,0,0,1,2,2v33.28L168,356.23a2,2,0,0,1,1.27-.45H301.88A13.14,13.14,0,0,0,315,342.65V260.59H240.81a17.14,17.14,0,0,1-17.13-17.13V214.3Zm149.83,60.85a15.33,15.33,0,1,1-15.33,15.32A15.33,15.33,0,0,1,259.41,275.15Zm-51.13,0A15.33,15.33,0,1,1,193,290.47,15.33,15.33,0,0,1,208.28,275.15Zm-51.14,0a15.33,15.33,0,1,1-15.32,15.32A15.34,15.34,0,0,1,157.14,275.15Z" fill="#a1ca43"/><path d="M301.88,359.78A17.15,17.15,0,0,0,319,342.65V260.59h-4v82.06a13.14,13.14,0,0,1-13.12,13.13H169.25a2,2,0,0,0-1.27.45l-42.35,34.83V357.78a2,2,0,0,0-2-2h-14a13.14,13.14,0,0,1-13.13-13.13V227.43a13.14,13.14,0,0,1,13.13-13.13h114.1v-4H109.58a17.14,17.14,0,0,0-17.13,17.13V342.65a17.15,17.15,0,0,0,17.13,17.13h12V395.3a2,2,0,0,0,1.14,1.8,2,2,0,0,0,.85.2,2,2,0,0,0,1.28-.46l32-26.32L170,359.78Z"/><path d="M197,290.47a11.33,11.33,0,1,0,11.33-11.32A11.34,11.34,0,0,0,197,290.47Z" fill="#fff"/><path d="M208.28,305.8A15.33,15.33,0,1,0,193,290.47,15.34,15.34,0,0,0,208.28,305.8Zm11.32-15.33a11.33,11.33,0,1,1-11.32-11.32A11.34,11.34,0,0,1,219.6,290.47Z"/><path d="M145.82,290.47a11.33,11.33,0,1,0,11.32-11.32A11.34,11.34,0,0,0,145.82,290.47Z" fill="#fff"/><path d="M157.14,305.8a15.33,15.33,0,1,0-15.32-15.33A15.35,15.35,0,0,0,157.14,305.8Zm11.33-15.33a11.33,11.33,0,1,1-11.33-11.32A11.34,11.34,0,0,1,168.47,290.47Z"/><path d="M248.08,290.47a11.33,11.33,0,1,0,11.33-11.32A11.34,11.34,0,0,0,248.08,290.47Z" fill="#fff"/><path d="M259.41,305.8a15.33,15.33,0,1,0-15.33-15.33A15.34,15.34,0,0,0,259.41,305.8Zm11.32-15.33a11.33,11.33,0,1,1-11.32-11.32A11.34,11.34,0,0,1,270.73,290.47Z"/><path d="M433.11,115.12H240.81a13.14,13.14,0,0,0-13.13,13.12V243.46a13.14,13.14,0,0,0,13.13,13.13H373.43a2,2,0,0,1,1.28.45l42.35,34.84V258.59a2,2,0,0,1,2-2h14.05a13.14,13.14,0,0,0,13.12-13.13V128.24A13.14,13.14,0,0,0,433.11,115.12ZM283.27,176A15.33,15.33,0,1,1,268,191.29,15.35,15.35,0,0,1,283.27,176Zm51.14,30.65a15.33,15.33,0,1,1,15.32-15.32A15.34,15.34,0,0,1,334.41,206.61Zm51.13,0a15.33,15.33,0,1,1,15.33-15.32A15.34,15.34,0,0,1,385.54,206.61Z" fill="#4b5d64"/><path d="M433.11,111.12H240.81a17.14,17.14,0,0,0-17.13,17.12V243.46a17.14,17.14,0,0,0,17.13,17.13H372.72l31.63,26,13.44,11.06a2,2,0,0,0,1.27.45,2,2,0,0,0,.85-.19,2,2,0,0,0,1.15-1.81V260.59h12.05a17.14,17.14,0,0,0,17.12-17.13V128.24A17.14,17.14,0,0,0,433.11,111.12Zm13.12,132.34a13.14,13.14,0,0,1-13.12,13.13H419.06a2,2,0,0,0-2,2v33.29L374.71,257a2,2,0,0,0-1.28-.45H240.81a13.14,13.14,0,0,1-13.13-13.13V128.24a13.14,13.14,0,0,1,13.13-13.12h192.3a13.14,13.14,0,0,1,13.12,13.12Z"/><path d="M334.41,180a11.33,11.33,0,1,0,11.32,11.33A11.34,11.34,0,0,0,334.41,180Z" fill="#fff"/><path d="M334.41,176a15.33,15.33,0,1,0,15.32,15.33A15.34,15.34,0,0,0,334.41,176Zm0,26.65a11.33,11.33,0,1,1,11.32-11.32A11.34,11.34,0,0,1,334.41,202.61Z"/><path d="M396.87,191.29a11.33,11.33,0,1,0-11.33,11.32A11.35,11.35,0,0,0,396.87,191.29Z" fill="#fff"/><path d="M400.87,191.29a15.33,15.33,0,1,0-15.33,15.32A15.35,15.35,0,0,0,400.87,191.29Zm-15.33,11.32a11.33,11.33,0,1,1,11.33-11.32A11.34,11.34,0,0,1,385.54,202.61Z"/><path d="M272,191.29A11.33,11.33,0,1,0,283.27,180,11.34,11.34,0,0,0,272,191.29Z" fill="#fff"/><path d="M283.27,206.61A15.33,15.33,0,1,0,268,191.29,15.34,15.34,0,0,0,283.27,206.61Zm11.33-15.32A11.33,11.33,0,1,1,283.27,180,11.34,11.34,0,0,1,294.6,191.29Z"/><path d="M187.92,58.31a2,2,0,0,0,0,2.83L208.58,81.8a2,2,0,0,0,2.83,0,2,2,0,0,0,0-2.83L190.75,58.31A2,2,0,0,0,187.92,58.31Z"/><path d="M163,104.71a2,2,0,0,0,2,2h29.21a2,2,0,0,0,0-4H165A2,2,0,0,0,163,104.71Z"/><path d="M231.91,38.21V70.05a2,2,0,0,0,4,0V38.21a2,2,0,0,0-4,0Z"/></g></svg>