<svg xmlns="http://www.w3.org/2000/svg" viewBox="0 0 512 512"><g id="f6fcb357-c820-4b89-bae8-f344d54c5c82" data-name="Layer 1"><path d="M368.15,154.24a152.6,152.6,0,0,1,11.31,14l4.36-14Z" fill="none"/><path d="M131.16,170.27a151.15,151.15,0,0,1,12.69-16H125.91Z" fill="none"/><path d="M245.75,130.61V115.37a10.25,10.25,0,0,1,20.5,0v15.24a23.32,23.32,0,0,1,13,19.63h85.13a151.47,151.47,0,0,0-181.18-27.05h12a2,2,0,0,1,0,4H176.35a151.47,151.47,0,0,0-28.72,23.05h85.13A23.32,23.32,0,0,1,245.75,130.61Z" fill="#e7f2d0"/><path d="M329.2,267.42a2,2,0,0,1,2-2h18.11l2.22-7.15a10.87,10.87,0,0,1,1-3.12l13.89-44.76v-6.87A20.83,20.83,0,0,1,373.34,188l6.12-19.73a152.6,152.6,0,0,0-11.31-14h-89a23.32,23.32,0,0,1-12.86,18.15V375.84h81.36c.32,0,.63,0,.94,0a152.23,152.23,0,0,0,41.84-50c-.89,0-1.79.07-2.7.07A58.56,58.56,0,0,1,329.2,267.42Z" fill="#e7f2d0"/><path d="M245.75,375.84V172.39a23.32,23.32,0,0,1-12.86-18.15h-89a151.15,151.15,0,0,0-12.69,16l6.28,19.2a20.72,20.72,0,0,1,5.49,14.05v2.69l19.38,59.21H180.8a2,2,0,0,1,2,2,58.56,58.56,0,0,1-58.49,58.5c-.91,0-1.81,0-2.7-.07a152.11,152.11,0,0,0,41.84,50c.31,0,.62,0,.94,0Z" fill="#e7f2d0"/><path d="M256,174.78a23,23,0,0,1-6.25-.86V375.84h12.5V173.92A23,23,0,0,1,256,174.78Z" fill="#a1ca43"/><path d="M256,109.12a6.25,6.25,0,0,0-6.25,6.25v13.72a23.14,23.14,0,0,1,12.5,0V115.37A6.25,6.25,0,0,0,256,109.12Z" fill="#a1ca43"/><path d="M245.75,172.39V375.84h4V173.92A22.94,22.94,0,0,1,245.75,172.39Z"/><path d="M249.75,129.09V115.37a6.25,6.25,0,0,1,12.5,0v13.72a23.74,23.74,0,0,1,4,1.52V115.37a10.25,10.25,0,0,0-20.5,0v15.24A23.74,23.74,0,0,1,249.75,129.09Z"/><path d="M262.25,173.92V375.84h4V172.39A22.94,22.94,0,0,1,262.25,173.92Z"/><path d="M164.39,379.84a19.76,19.76,0,0,0-19.74,19.74v4.88h222.7v-4.88a19.76,19.76,0,0,0-19.74-19.74Z" fill="#4b5d64"/><path d="M266.25,375.84H164.39c-.32,0-.63,0-.94,0a23.76,23.76,0,0,0-22.8,23.71v6.88a2,2,0,0,0,2,2h226.7a2,2,0,0,0,2-2v-6.88a23.76,23.76,0,0,0-22.8-23.71c-.31,0-.62,0-.94,0Zm81.36,4a19.76,19.76,0,0,1,19.74,19.74v4.88H144.65v-4.88a19.76,19.76,0,0,1,19.74-19.74Z"/><path d="M388.44,151.61l.67,2a2,2,0,0,0-1.42-3.41h-1.17A2.08,2.08,0,0,1,388.44,151.61Z"/><path d="M125.05,151.61l.86,2.63h107a22.52,22.52,0,0,1-.17-2.74c0-.42,0-.84,0-1.26H124.31a2,2,0,0,0-.6.1A2,2,0,0,1,125.05,151.61Z"/><path d="M279.28,151.5a22.52,22.52,0,0,1-.17,2.74H383.82l.81-2.6a2,2,0,0,1,1.89-1.4H279.24C279.26,150.66,279.28,151.08,279.28,151.5Z"/><path d="M123.2,158.82l-7.73,24.9a20.68,20.68,0,0,1,16.32,1.35Z" fill="#fff"/><path d="M133.73,236.2v2.9h1.17a21.25,21.25,0,0,1,11.81,3.73,30,30,0,0,1,5.57,4.81l-9.36-28.59A20.86,20.86,0,0,1,133.73,236.2Z" fill="#fff"/><path d="M102.39,225.86l-5.59,18,.3-.23A21.51,21.51,0,0,1,110,239.1h.33v-2.9A20.94,20.94,0,0,1,102.39,225.86Z" fill="#fff"/><path d="M157.68,265.42h.42l-.18-.55Z" fill="#fff"/><path d="M86.55,263.39l-.63,2h1.34A10.77,10.77,0,0,1,86.55,263.39Z"/><path d="M96.8,243.85l5.59-18a20.57,20.57,0,0,1-1.22-7v-2.6L90.73,249.93A33,33,0,0,1,96.8,243.85Z"/><path d="M115.47,183.72l7.73-24.9,8.59,26.25a20.74,20.74,0,0,1,5.65,4.4l-6.28-19.2-5.25-16-.86-2.63a2,2,0,0,0-1.34-1.27,1.91,1.91,0,0,0-.58-.1,2,2,0,0,0-1.89,1.4l-10.7,34.48A20.3,20.3,0,0,1,115.47,183.72Z"/><path d="M142.93,218.9s0,.1,0,.15l9.36,28.59a41.29,41.29,0,0,1,5,6.73l.06.11a12.2,12.2,0,0,1,.62,10.39l.18.55h4.21l-19.38-59.21Z"/><path d="M92.71,269.42H69.85a54.49,54.49,0,0,0,108.91,0h-86Z" fill="#fff"/><path d="M182.8,267.42a2,2,0,0,0-2-2H157.68c-.11.22-.21.43-.33.63a6,6,0,0,1-5.13,3.37h26.54a54.49,54.49,0,0,1-108.91,0H92.71a6,6,0,0,1-5.12-3.36,5.49,5.49,0,0,1-.33-.64H67.81a2,2,0,0,0-2,2,58.57,58.57,0,0,0,55.8,58.43c.89,0,1.79.07,2.7.07A58.56,58.56,0,0,0,182.8,267.42Z"/><path d="M394.86,184.09l-8.27-25.27-8,25.73a20.61,20.61,0,0,1,16.26-.46Z" fill="#fff"/><path d="M400.13,239.1a21.2,21.2,0,0,1,11.8,3.73,26.69,26.69,0,0,1,2.88,2.19l-7.12-21.76A21,21,0,0,1,399,236.2v2.9Z" fill="#fff"/><path d="M362.32,243.62a21.51,21.51,0,0,1,12.94-4.52h.33v-2.9a21,21,0,0,1-8.84-13.49L359.54,246A28.72,28.72,0,0,1,362.32,243.62Z" fill="#fff"/><path d="M422.9,265.42h2.8L424,260.25A12.55,12.55,0,0,1,422.9,265.42Z"/><path d="M359.54,246l7.21-23.25a21.77,21.77,0,0,1-.36-3.81v-8.51L352.5,255.15a6.94,6.94,0,0,1,.38-.71A38.91,38.91,0,0,1,359.54,246Z"/><path d="M351.53,258.27l-2.22,7.15h3.17A12.71,12.71,0,0,1,351.53,258.27Z"/><path d="M384.63,151.64l-.81,2.6-4.36,14L373.34,188a20.84,20.84,0,0,1,5.26-3.46l8-25.73,8.27,25.27A20.84,20.84,0,0,1,400,187l-10.93-33.38-.67-2a2.08,2.08,0,0,0-1.92-1.37A2,2,0,0,0,384.63,151.64Z"/><path d="M408.15,218.9a20.87,20.87,0,0,1-.46,4.36L414.81,245a36.66,36.66,0,0,1,6.86,8.1l-13.52-41.3Z"/><path d="M419.1,264.08a8.23,8.23,0,0,0,0-7.55l-.06-.11a31.64,31.64,0,0,0-9.3-10.25,17.23,17.23,0,0,0-9.6-3.07H399v1.07a11.68,11.68,0,0,1-23.36,0V243.1h-.33a17.6,17.6,0,0,0-10.56,3.74,32.41,32.41,0,0,0-8.39,9.65,8.25,8.25,0,0,0,0,7.6c.28.49.87,1.33,1.65,1.33h59.5C418.22,265.42,418.81,264.58,419.1,264.08Z" fill="#a1ca43"/><path d="M414.81,245a26.69,26.69,0,0,0-2.88-2.19,21.2,21.2,0,0,0-11.8-3.73H399v4h1.18a17.23,17.23,0,0,1,9.6,3.07,31.64,31.64,0,0,1,9.3,10.25l.06.11a8.23,8.23,0,0,1,0,7.55c-.29.5-.88,1.34-1.66,1.34h5.46a12.55,12.55,0,0,0,1.11-5.17,11.22,11.22,0,0,0-1.49-5.77l-.06-.11c-.26-.43-.52-.84-.79-1.25A36.66,36.66,0,0,0,414.81,245Z"/><path d="M356.29,264.09a8.25,8.25,0,0,1,0-7.6,32.41,32.41,0,0,1,8.39-9.65,17.6,17.6,0,0,1,10.56-3.74h.33v-4h-.33a21.51,21.51,0,0,0-12.94,4.52,28.72,28.72,0,0,0-2.78,2.34,38.91,38.91,0,0,0-6.66,8.48,6.94,6.94,0,0,0-.38.71,10.87,10.87,0,0,0-1,3.12,12.71,12.71,0,0,0,1,7.15h5.46C357.16,265.42,356.57,264.58,356.29,264.09Z"/><path d="M379.59,244.17a7.68,7.68,0,0,0,15.36,0V238.3a20.67,20.67,0,0,1-15.36,0Z" fill="#fff"/><path d="M375.59,243.1v1.07a11.68,11.68,0,0,0,23.36,0v-8a20.87,20.87,0,0,1-4,2.1v5.87a7.68,7.68,0,0,1-15.36,0V238.3a20.87,20.87,0,0,1-4-2.1v6.9Z"/><path d="M387.27,186.64a16.9,16.9,0,0,0-16.88,16.88V218.9a16.88,16.88,0,0,0,33.76,0V203.52A16.9,16.9,0,0,0,387.27,186.64Z" fill="#fff"/><path d="M394.86,184.09a20.9,20.9,0,0,0-28.47,19.43V218.9a21.77,21.77,0,0,0,.36,3.81,20.79,20.79,0,0,0,12.84,15.59A20.95,20.95,0,0,0,399,236.2a20.86,20.86,0,0,0,9.2-17.3V203.52a20.92,20.92,0,0,0-13.29-19.43Zm9.29,34.81a16.88,16.88,0,0,1-33.76,0V203.52a16.88,16.88,0,1,1,33.76,0Z"/><path d="M122.05,255.85a11.69,11.69,0,0,1-11.68-11.68V243.1H110a17.62,17.62,0,0,0-10.57,3.74,32.25,32.25,0,0,0-8.38,9.65,8.28,8.28,0,0,0,0,7.6c.29.49.88,1.33,1.65,1.33h59.51c.77,0,1.37-.84,1.65-1.34a8.18,8.18,0,0,0,0-7.55l-.06-.11a31.43,31.43,0,0,0-9.3-10.25,17.18,17.18,0,0,0-9.6-3.07h-1.17v1.07A11.69,11.69,0,0,1,122.05,255.85Z" fill="#4b5d64"/><path d="M87.59,266.06a6,6,0,0,0,5.12,3.36h59.51a6,6,0,0,0,5.13-3.37c.12-.2.22-.41.33-.63l.24-.55a12.2,12.2,0,0,0-.62-10.39l-.06-.11a41.29,41.29,0,0,0-5-6.73,30,30,0,0,0-5.57-4.81,21.25,21.25,0,0,0-11.81-3.73h-1.17v4h1.17a17.18,17.18,0,0,1,9.6,3.07,31.43,31.43,0,0,1,9.3,10.25l.06.11a8.18,8.18,0,0,1,0,7.55c-.28.5-.88,1.34-1.65,1.34H92.71c-.77,0-1.36-.84-1.65-1.33a8.28,8.28,0,0,1,0-7.6,32.25,32.25,0,0,1,8.38-9.65A17.62,17.62,0,0,1,110,243.1h.33v-4H110a21.51,21.51,0,0,0-12.94,4.52l-.3.23a33,33,0,0,0-6.07,6.08,45.11,45.11,0,0,0-3.08,4.51,12.06,12.06,0,0,0-1.1,8.95,10.77,10.77,0,0,0,.71,2A5.49,5.49,0,0,0,87.59,266.06Z"/><path d="M114.37,244.17a7.68,7.68,0,1,0,15.36,0V238.3a20.67,20.67,0,0,1-15.36,0Z" fill="#fff"/><path d="M129.73,238.3v5.87a7.68,7.68,0,1,1-15.36,0V238.3a20.58,20.58,0,0,1-4-2.1v8a11.68,11.68,0,1,0,23.36,0v-8A21.17,21.17,0,0,1,129.73,238.3Z"/><path d="M105.17,203.52V218.9a16.88,16.88,0,0,0,33.76,0V203.52a16.88,16.88,0,0,0-33.76,0Z" fill="#fff"/><path d="M102.39,225.86a20.94,20.94,0,0,0,8,10.34,20.78,20.78,0,0,0,19.36,2.1,21.17,21.17,0,0,0,4-2.1,20.86,20.86,0,0,0,9.19-17.15c0-.05,0-.1,0-.15V203.52a20.84,20.84,0,0,0-27.46-19.8,20.3,20.3,0,0,0-4.93,2.4,20.86,20.86,0,0,0-9.37,17.4V218.9A20.57,20.57,0,0,0,102.39,225.86Zm19.66-39.22a16.9,16.9,0,0,1,16.88,16.88V218.9a16.88,16.88,0,0,1-33.76,0V203.52A16.9,16.9,0,0,1,122.05,186.64Z"/><path d="M442.15,269.42H333.24a54.49,54.49,0,0,0,108.91,0Z" fill="#fff"/><path d="M444.19,265.42h-113a2,2,0,0,0-2,2,58.56,58.56,0,0,0,58.49,58.5c.91,0,1.81,0,2.7-.07a58.57,58.57,0,0,0,55.8-58.43A2,2,0,0,0,444.19,265.42Zm-110.95,4H442.15a54.49,54.49,0,0,1-108.91,0Z"/><path d="M256,170.78a19.28,19.28,0,1,0-19.28-19.28A19.3,19.3,0,0,0,256,170.78Z" fill="#4b5d64"/><path d="M279.28,151.5c0-.42,0-.84,0-1.26a23.32,23.32,0,0,0-13-19.63,23.74,23.74,0,0,0-4-1.52,23.14,23.14,0,0,0-12.5,0,23.74,23.74,0,0,0-4,1.52,23.32,23.32,0,0,0-13,19.63c0,.42,0,.84,0,1.26a22.52,22.52,0,0,0,.17,2.74,23.32,23.32,0,0,0,12.86,18.15,23.19,23.19,0,0,0,20.5,0,23.32,23.32,0,0,0,12.86-18.15A22.52,22.52,0,0,0,279.28,151.5Zm-42.56,0A19.28,19.28,0,1,1,256,170.78,19.29,19.29,0,0,1,236.72,151.5Z"/><path d="M208.59,103.8a2,2,0,0,0,2.82-2.83L192.05,81.6a2,2,0,1,0-2.83,2.83Z"/><path d="M197.22,125.19a2,2,0,0,0-2-2H167.83a2,2,0,1,0,0,4h27.39A2,2,0,0,0,197.22,125.19Z"/><path d="M232.42,94.7a2,2,0,0,0,2-2V62.85a2,2,0,1,0-4,0V92.7A2,2,0,0,0,232.42,94.7Z"/></g></svg>