<svg xmlns="http://www.w3.org/2000/svg" viewBox="0 0 512 512"><g id="e8b2a02a-976c-4d3d-8396-81cc614c5a97" data-name="Layer 1"><path d="M221.55,398.15a18,18,0,0,1-18.3-4.39l-.75-.75a18,18,0,0,1-4.31-18.55,18.22,18.22,0,0,1-5.79,1,18,18,0,0,1-12.75-5.28l-.76-.75a18,18,0,0,1-4.73-17.11,7.61,7.61,0,0,0-2.36-.93,18.66,18.66,0,0,1-3,.26c-.37,0-.75,0-1.12-.05l-.08,0c-2,.6-4,0-6.15-1.5a18.45,18.45,0,0,1-9.84-10L150,338.23c-4-4.69-8.47-10-13.78-15.22-6.39-6.29-14.26-15.22-21.14-23.31l-1,1a2,2,0,0,1-1.41.59,2,2,0,0,1-1.42-.59l0-.05a151.7,151.7,0,0,0,109.59,102.7,18.39,18.39,0,0,1,.78-4.81Z" fill="#e7f2d0"/><path d="M295.9,400.28a6.65,6.65,0,0,1-1.67,0,19.25,19.25,0,0,1,.52,2.15c2-.53,4-1.09,5.91-1.69-.2,0-.39,0-.59,0A18.65,18.65,0,0,1,295.9,400.28Z" fill="#e7f2d0"/><path d="M399.28,298.33a2,2,0,0,1-1.41-.59l-10.51-10.51c-11.19,10.54-27.09,23.14-33.61,28.23l6.64,6.35a18.58,18.58,0,0,1-13.11,31.74,18.4,18.4,0,0,1-4.87-.66c.65,3.53-.08,9.24-.18,9.94a2,2,0,0,1-.21.67c0,.08-.46.86-1.08,1.94a18.47,18.47,0,0,1-4,6.15,14.54,14.54,0,0,1-4.44,3.34c-.2.11-.41.21-.62.31l-.62.29c-.29.13-.59.26-.89.37l-.84.32-.11,0a18.45,18.45,0,0,1-11.8-.12,18.53,18.53,0,0,1-4.41,19.21,20,20,0,0,1-2.05,1.75A151.79,151.79,0,0,0,402,296.48l-1.26,1.26A2,2,0,0,1,399.28,298.33Z" fill="#e7f2d0"/><path d="M195.11,144.09l36.39,36.39a2,2,0,0,1,0,2.83l-9.87,9.87,29,25.62,34.08-34.27-4.16-4.16a2,2,0,0,1,0-2.83l36.39-36.39a2,2,0,0,1,2.83,0l84.72,84.72a151.42,151.42,0,0,0-57.65-91.08l-4.14,3.67a2,2,0,1,1-2.66-3l3.49-3.1a152.11,152.11,0,0,0-21.89-12.91l-.44,7.25a2,2,0,0,1-2,1.88H319a2,2,0,0,1-1.88-2.12l.53-8.81A151.53,151.53,0,0,0,106.88,229.49l85.4-85.4A2,2,0,0,1,195.11,144.09Zm77.59-35.45a2,2,0,0,1,2.82.17l18.21,20.53a2,2,0,0,1-.17,2.83,2,2,0,0,1-2.83-.17l-18.2-20.54A2,2,0,0,1,272.7,108.64Z" fill="#e7f2d0"/><path d="M319,128.59h.12a2,2,0,0,0,2-1.88l.44-7.25,1.21-20.14a2,2,0,0,0-4-.24l-1.11,18.58-.53,8.81A2,2,0,0,0,319,128.59Z"/><path d="M290.73,132a2,2,0,0,0,3-2.66l-18.21-20.53a2,2,0,0,0-3,2.65Z"/><path d="M339.82,138.29a2,2,0,0,0,2.83.17l4.14-3.67L365,118.62a2,2,0,1,0-2.65-3l-18.89,16.74-3.49,3.1A2,2,0,0,0,339.82,138.29Z"/><path d="M342.42,251.06a2,2,0,0,1-.29,2.81c-9.14,7.43-21.93,15.57-36,17.73L351,312.53c12.39-9.64,25-20.13,33.55-28.11l-70.26-70.26,25.44,36.53A2,2,0,0,1,342.42,251.06Z" fill="#a1ca43"/><path d="M260.17,318.53a2,2,0,0,1,2.83,0l.08.07,21.7-19.54a2,2,0,0,1,2.89-2.75l34.42,34.42a2,2,0,0,1,.73.42l19.09-21.5-.05,0-40.71-37.18a1.64,1.64,0,0,1-.28-.31,42.68,42.68,0,0,1-8.49-.49,37.22,37.22,0,0,1-16.78-7l-24.33,25.45A25.49,25.49,0,0,1,233,300.38c-.77.07-1.54.11-2.31.11A25.52,25.52,0,0,1,212.6,257l35.15-35.34-29-25.62L118,296.86c6.86,8.08,14.74,17,21.11,23.3,4.21,4.15,7.89,8.31,11.21,12.18a18.45,18.45,0,0,1,5.41-12.42l9.51-9.51a18.58,18.58,0,0,1,31.71,13.13,17.59,17.59,0,0,1-.19,2.52l1.1-1.1a18.06,18.06,0,0,1,25.52,0l.75.75a18.05,18.05,0,0,1,4.32,18.53,18,18,0,0,1,18.53,4.33l.76.75a18,18,0,0,1,3.81,19.91,18,18,0,0,1,17.31,4.67h0a2,2,0,0,1,1.22.52l18.81,17.5,8.31-33.26-.85-.85a2,2,0,0,1-.49-.82l-35.65-35.65A2,2,0,0,1,260.17,318.53Z" fill="#a1ca43"/><path d="M290.86,417.55c-.28.33-.58.65-.88,1A6.64,6.64,0,0,0,290.86,417.55Z"/><path d="M291.08,417.25v0l-.2.28C291,417.42,291,417.34,291.08,417.25Z"/><path d="M329.52,376.22l.84-.32-.95.34Z"/><path d="M171.8,351.36a7.61,7.61,0,0,1,2.36.93q.21-.82.48-1.62A17.55,17.55,0,0,1,171.8,351.36Z"/><path d="M295.9,400.28a17.14,17.14,0,0,1-1.86-.53c.06.18.13.35.19.53A6.65,6.65,0,0,0,295.9,400.28Z"/><path d="M331.87,375.24l-.62.29Z"/><path d="M332.49,374.93a14.54,14.54,0,0,0,4.44-3.34l-.12.13A18.37,18.37,0,0,1,332.49,374.93Z"/><path d="M221.62,398.52l.16-.45-.23.08Z"/><path d="M167.61,351.59l.08,0a18.54,18.54,0,0,1-6.23-1.48C163.63,351.59,165.62,352.19,167.61,351.59Z"/><path d="M342.25,358.59a18.63,18.63,0,0,1-1.31,6.85c.62-1.08,1-1.86,1.08-1.94a2,2,0,0,0,.21-.67c.1-.7.83-6.41.18-9.94-.4-.11-.79-.23-1.19-.36A18.36,18.36,0,0,1,342.25,358.59Z"/><polygon points="250.58 218.8 221.63 193.19 218.79 196.02 247.75 221.64 250.58 218.8"/><path d="M150.24,333.05c0-.24,0-.47,0-.71-3.32-3.87-7-8-11.21-12.18-6.37-6.27-14.25-15.22-21.11-23.3l-2.84,2.84c6.88,8.09,14.75,17,21.14,23.31,5.31,5.23,9.81,10.53,13.78,15.22l1.59,1.86A18.37,18.37,0,0,1,150.24,333.05Z"/><path d="M352.24,313.67a1.93,1.93,0,0,1,.55.87l1,.92c6.52-5.09,22.42-17.69,33.61-28.23l-2.81-2.81c-8.59,8-21.16,18.47-33.55,28.11Z"/><path d="M269.57,400.17l-9.65,9.66,6.26,6.26a14.58,14.58,0,0,0,20.61-20.62l-12.26-11.4A18,18,0,0,1,269.57,400.17Z" fill="#a1ca43"/><path d="M294,399.75a18.54,18.54,0,0,1-7.11-4.42,2,2,0,0,1,1.9-3.35l0-.05L270,374.43a2,2,0,0,0-1.22-.52l.75.75a18,18,0,0,1,5,9.41l12.26,11.4a14.58,14.58,0,1,1-20.61,20.62l-6.26-6.26-2.83,2.83,6.26,6.26a18.58,18.58,0,0,0,26.27,0c.13-.13.24-.27.36-.41.3-.31.6-.63.88-1l0,0,.2-.28a18.38,18.38,0,0,0,4-11.45,19.6,19.6,0,0,0-.31-3.35,19.25,19.25,0,0,0-.52-2.15C294.17,400.1,294.1,399.93,294,399.75Z"/><path d="M215.44,259.8a21.52,21.52,0,0,0,.39,30.73,21.5,21.5,0,0,0,32.28-2.94,1.71,1.71,0,0,1,.18-.2L274,260.47a2,2,0,0,1,1.42-.62,2.11,2.11,0,0,1,1.44.58c.93.92,23.49,22.23,62.74-9.66l.12-.08-25.44-36.53-26.8-26.8Z" fill="#a1ca43"/><path d="M247.75,221.64,212.6,257a25.52,25.52,0,0,0,18.09,43.51c.77,0,1.54,0,2.31-.11a25.49,25.49,0,0,0,18.27-10.33L275.6,264.6a37.22,37.22,0,0,0,16.78,7,42.68,42.68,0,0,0,8.49.49,2,2,0,0,1,3-2.64l2.33,2.12c14-2.16,26.82-10.3,36-17.73a2,2,0,0,0-2.4-3.18l-.12.08c-39.25,31.89-61.81,10.58-62.74,9.66a2.11,2.11,0,0,0-1.44-.58,2,2,0,0,0-1.42.62l-25.72,26.92a1.71,1.71,0,0,0-.18.2,21.51,21.51,0,1,1-32.67-27.79l72.05-72.44-2.83-2.83L250.58,218.8Z"/><path d="M341.86,309.61h0a2,2,0,0,1,2.77-2.89l8.17,7.83a1.93,1.93,0,0,0-.55-.87L351,312.53,306.17,271.6l-2.33-2.12a2,2,0,0,0-3,2.64,1.64,1.64,0,0,0,.28.31Z"/><path d="M178.33,309A14.44,14.44,0,0,0,168,313.24l-9.51,9.51a14.57,14.57,0,0,0,0,20.61,14.59,14.59,0,0,0,20.61,0l9.51-9.51A14.58,14.58,0,0,0,178.33,309Z" fill="#a1ca43"/><path d="M178.89,343.88l17.82-17.82a17.59,17.59,0,0,0,.19-2.52,18.58,18.58,0,0,0-31.71-13.13l-9.51,9.51a18.45,18.45,0,0,0-5.41,12.42c0,.24,0,.47,0,.71a18.56,18.56,0,0,0,17.45,18.52c.37,0,.75.05,1.12.05a18.66,18.66,0,0,0,3-.26,17.55,17.55,0,0,0,2.84-.69A18,18,0,0,1,178.89,343.88Zm9.74-10-9.51,9.51a14.59,14.59,0,0,1-20.61,0,14.57,14.57,0,0,1,0-20.61l9.51-9.51a14.57,14.57,0,1,1,20.61,20.61Z"/><path d="M220.5,327.79a14,14,0,0,0-19.86,0l-18.93,18.92a14.05,14.05,0,0,0,0,19.86l.76.76h0a14.07,14.07,0,0,0,19.86,0l18.93-18.93a14.05,14.05,0,0,0,0-19.86Z" fill="#a1ca43"/><path d="M202.49,367.49l18.93-18.92a18,18,0,0,1,7-4.33,18.05,18.05,0,0,0-4.32-18.53l-.75-.75a18.06,18.06,0,0,0-25.52,0l-1.1,1.1-17.82,17.82a18,18,0,0,0-4.25,6.79q-.27.79-.48,1.62a18,18,0,0,0,4.73,17.11l.76.75a18,18,0,0,0,12.75,5.28,18.22,18.22,0,0,0,5.79-1A18,18,0,0,1,202.49,367.49Zm18.77-19.09-18.93,18.93a14.07,14.07,0,0,1-19.86,0h0l-.76-.76a14.05,14.05,0,0,1,0-19.86l18.93-18.92a14,14,0,0,1,19.86,0l.76.75a14.05,14.05,0,0,1,0,19.86Z"/><path d="M244.86,352.15l-.75-.76a14.05,14.05,0,0,0-19.86,0l-18.93,18.93a14.05,14.05,0,0,0,0,19.86l.76.75h0a14.05,14.05,0,0,0,19.86,0L244.86,372a14,14,0,0,0,0-19.86Z" fill="#a1ca43"/><path d="M247.69,349.32l-.76-.75a18,18,0,0,0-25.51,0l-18.93,18.92a18.12,18.12,0,0,0,0,25.52l.75.75a18,18,0,0,0,18.3,4.39l.23-.08a18.1,18.1,0,0,1,4.32-7l17.2-17.2a18,18,0,0,1,8.2-4.67,18,18,0,0,0-3.81-19.91Zm-21.75,41.61a14.05,14.05,0,0,1-19.86,0h0l-.76-.75a14.05,14.05,0,0,1,0-19.86l18.93-18.93a14.05,14.05,0,0,1,19.86,0l.75.76a14,14,0,0,1,0,19.86Z"/><path d="M266.74,397.35a14.05,14.05,0,0,0,0-19.86l-.76-.76a14.06,14.06,0,0,0-19.85,0l-17.2,17.2a14,14,0,0,0,0,19.85l.76.76a14,14,0,0,0,19.85,0Z" fill="#a1ca43"/><path d="M259.92,409.83l9.65-9.66a18.06,18.06,0,0,0,0-25.51l-.75-.75h0a18.11,18.11,0,0,0-25.51,0l-17.2,17.2a18.1,18.1,0,0,0-4.32,7l-.16.45a18.39,18.39,0,0,0-.78,4.81c0,.18,0,.35,0,.53a17.92,17.92,0,0,0,5.28,12.75l.76.76h0a18,18,0,0,0,25.51,0l4.72-4.71Zm-30.23,4.71-.76-.76a14,14,0,0,1,0-19.85l17.2-17.2a14.06,14.06,0,0,1,19.85,0l.76.76a14.05,14.05,0,0,1,0,19.86l-17.2,17.19A14,14,0,0,1,229.69,414.54Z"/><path d="M288.83,392a2,2,0,0,1,.93.52,14.58,14.58,0,0,0,20.62-20.61l-13.22-13.22-8.31,33.26Z" fill="#a1ca43"/><path d="M318.64,382.19a18.47,18.47,0,0,0-1-6.07,18.46,18.46,0,0,1-7.07-4.4L295.82,357a2,2,0,0,0,.49.82l.85.85,13.22,13.22a14.58,14.58,0,0,1-20.62,20.61,2,2,0,0,0-.93-.52,2,2,0,0,0-1.9,3.35,18.54,18.54,0,0,0,7.11,4.42,17.14,17.14,0,0,0,1.86.53,18.65,18.65,0,0,0,4.17.49c.2,0,.39,0,.59,0a18.34,18.34,0,0,0,10.49-3.66,20,20,0,0,0,2.05-1.75A18.45,18.45,0,0,0,318.64,382.19Z"/><path d="M313.37,368.89A14.57,14.57,0,1,0,334,348.28l-49.14-49.14-.06-.08-21.7,19.54Z" fill="#a1ca43"/><path d="M341.22,352.53a18.52,18.52,0,0,1-7.07-4.42l-14.07-14.06a2,2,0,0,1,2-3.32l-34.42-34.42a2,2,0,0,0-2.89,2.75l.06.08L334,348.28a14.57,14.57,0,0,1-20.61,20.61L263.08,318.6l-.08-.07a2,2,0,0,0-2.83,2.82L295.82,357l14.72,14.72a18.46,18.46,0,0,0,7.07,4.4,18.45,18.45,0,0,0,11.8.12l.95-.34c.3-.11.6-.24.89-.37l.62-.29c.21-.1.42-.2.62-.31a18.37,18.37,0,0,0,4.32-3.21l.12-.13a18.48,18.48,0,0,0,4.29-19.06Z"/><path d="M322.91,331.22,337,345.29a14.58,14.58,0,0,0,20.61-20.62l-15.68-15-19.09,21.5Z" fill="#a1ca43"/><path d="M344.62,306.71a2,2,0,0,0-2.77,2.89h0l.05,0,15.68,15A14.58,14.58,0,0,1,337,345.29l-14.07-14.07-.09-.07a2,2,0,0,0-.73-.42,2,2,0,0,0-2,3.32l14.07,14.06a18.52,18.52,0,0,0,7.07,4.42c.4.13.79.25,1.19.36a18.52,18.52,0,0,0,18-4.78,18.61,18.61,0,0,0,0-26.3l-6.64-6.35-1-.92Z"/><rect x="335.06" y="138.45" width="47.47" height="161.99" transform="translate(-50.08 317.98) rotate(-45)" fill="#4b5d64"/><path d="M404.44,225.87l-84.72-84.72a2,2,0,0,0-2.83,0L280.5,177.54a2,2,0,0,0,0,2.83l4.16,4.16,2.83,2.83,26.8,26.8,70.26,70.26,2.81,2.81,10.51,10.51a2,2,0,0,0,1.41.59,2,2,0,0,0,1.42-.59l1.26-1.26,35.13-35.13a2,2,0,0,0,0-2.83Zm-86.13-80.48L432.85,259.93,399.28,293.5,284.74,179Z"/><rect x="72.21" y="198.65" width="161.99" height="47.47" transform="translate(-112.38 173.47) rotate(-45)" fill="#4b5d64"/><path d="M112.72,301.27a2,2,0,0,0,1.41-.59l1-1,2.84-2.84L218.79,196l2.84-2.84,9.87-9.87a2,2,0,0,0,0-2.83l-36.39-36.39a2,2,0,0,0-2.83,0l-85.4,85.4-32,32a2,2,0,0,0,0,2.83l36.34,36.34,0,.05A2,2,0,0,0,112.72,301.27ZM227.26,181.9,112.72,296.44,79.15,262.87,193.69,148.33Z"/></g></svg>