<svg width="897" height="414" viewBox="0 0 897 414" fill="none" xmlns="http://www.w3.org/2000/svg">
<g clip-path="url(#clip0)">
<rect width="897" height="414" rx="10" fill="white"/>
<g opacity="0.2" filter="url(#filter0_f)">
<rect x="712" y="93.6489" width="93.055" height="99.4009" rx="20" fill="black"/>
</g>
<rect x="712" y="74" width="109.817" height="109.803" rx="20" fill="white"/>
<g clip-path="url(#clip1)">
<path d="M768.36 98.2725H772.681C772.681 103.091 772.681 107.902 772.681 112.72C780.166 112.735 787.643 112.699 795.121 112.72C796.595 112.648 798.61 113.074 798.582 114.931C798.856 124.069 798.589 133.229 798.712 142.374C798.74 143.993 798.69 146.543 796.486 146.564C788.561 146.839 780.614 146.586 772.681 146.673C772.681 151.245 772.681 155.825 772.681 160.398H768.201C757.191 158.397 746.151 156.555 735.126 154.619C735.119 137.766 735.119 120.912 735.119 104.066C746.202 102.123 757.285 100.245 768.36 98.2725Z" fill="#0071C5"/>
<path d="M772.681 114.887C780.686 114.895 788.684 114.866 796.689 114.902C796.551 115.848 796.262 116.78 795.468 117.372C790.685 121.83 785.931 126.308 781.163 130.78C778.294 128.187 775.506 125.507 772.681 122.87C772.681 120.204 772.681 117.546 772.681 114.887V114.887Z" fill="white"/>
<path d="M750.609 117.531C754.684 115.993 759.445 118.153 761.172 122.09C763.527 127.508 763.195 134.919 758.513 139.015C754.2 142.707 746.968 140.605 745.003 135.36C742.416 129.314 743.673 120.009 750.609 117.531V117.531Z" fill="white"/>
<path d="M783.431 131.423C787.773 127.298 792.151 123.202 796.515 119.099C796.537 127.565 796.515 136.039 796.522 144.505C788.575 144.505 780.628 144.505 772.681 144.505C772.681 138.206 772.673 131.907 772.688 125.615C775.383 127.999 777.796 130.715 780.657 132.889C781.834 133.106 782.629 132.087 783.431 131.423Z" fill="white"/>
<path d="M751.31 121.873C753.232 120.956 755.638 121.887 756.541 123.787C757.986 126.648 757.978 130.137 757.032 133.157C756.36 135.302 754.012 137.072 751.736 136.227C748.897 135.331 748.037 131.965 748.008 129.328C747.972 126.597 748.601 123.195 751.31 121.873V121.873Z" fill="#0071C5"/>
</g>
<g opacity="0.35" filter="url(#filter1_f)">
<rect x="727.027" y="247.648" width="94.789" height="99.4009" rx="20" fill="black"/>
</g>
<rect x="712" y="228" width="109.817" height="109.803" rx="20" fill="white"/>
<path d="M749.232 291.438C749.232 295.092 746.277 298.045 742.62 298.045C738.963 298.045 736.008 295.092 736.008 291.438C736.008 287.784 738.963 284.831 742.62 284.831H749.232V291.438ZM752.539 291.438C752.539 287.784 755.494 284.831 759.151 284.831C762.808 284.831 765.763 287.784 765.763 291.438V307.956C765.763 311.61 762.808 314.563 759.151 314.563C755.494 314.563 752.539 311.61 752.539 307.956V291.438Z" fill="#E01E5A"/>
<path d="M759.15 264.908C755.493 264.908 752.538 261.955 752.538 258.301C752.538 254.647 755.493 251.694 759.15 251.694C762.807 251.694 765.762 254.647 765.762 258.301V264.908H759.15ZM759.15 268.262C762.807 268.262 765.762 271.215 765.762 274.869C765.762 278.524 762.807 281.477 759.15 281.477H742.569C738.913 281.477 735.957 278.524 735.957 274.869C735.957 271.215 738.913 268.262 742.569 268.262H759.15Z" fill="#36C5F0"/>
<path d="M785.65 274.869C785.65 271.215 788.605 268.262 792.262 268.262C795.919 268.262 798.875 271.215 798.875 274.869C798.875 278.523 795.919 281.477 792.262 281.477H785.65V274.869ZM782.344 274.869C782.344 278.523 779.388 281.477 775.731 281.477C772.075 281.477 769.119 278.523 769.119 274.869V258.301C769.119 254.647 772.075 251.694 775.731 251.694C779.388 251.694 782.344 254.647 782.344 258.301V274.869V274.869Z" fill="#2EB67D"/>
<path d="M775.731 301.349C779.388 301.349 782.344 304.302 782.344 307.956C782.344 311.61 779.388 314.563 775.731 314.563C772.075 314.563 769.119 311.61 769.119 307.956V301.349H775.731ZM775.731 298.045C772.075 298.045 769.119 295.092 769.119 291.438C769.119 287.784 772.075 284.83 775.731 284.83H792.312C795.969 284.83 798.925 287.784 798.925 291.438C798.925 295.092 795.969 298.045 792.312 298.045H775.731Z" fill="#ECB22E"/>
<g opacity="0.2" filter="url(#filter2_f)">
<rect x="78" y="247.649" width="93.055" height="99.4009" rx="20" fill="black"/>
</g>
<rect x="78" y="228" width="109.817" height="109.803" rx="20" fill="white"/>
<path d="M103.258 308.922H114.378V281.83L98.4922 269.878V304.141C98.4922 306.786 100.629 308.922 103.258 308.922Z" fill="#4285F4"/>
<path d="M152.505 308.922H163.625C166.262 308.922 168.391 306.778 168.391 304.141V269.878L152.505 281.83" fill="#34A853"/>
<path d="M152.505 261.113V281.83L168.391 269.878V263.503C168.391 257.591 161.663 254.22 156.953 257.766" fill="#FBBC04"/>
<path d="M114.378 281.83V261.113L133.441 275.456L152.505 261.113V281.83L133.441 296.173" fill="#EA4335"/>
<path d="M98.4922 263.503V269.878L114.378 281.83V261.113L109.93 257.766C105.212 254.22 98.4922 257.591 98.4922 263.503" fill="#C5221F"/>
<g opacity="0.4" filter="url(#filter3_f)">
<rect x="89.5605" y="94.6489" width="98.2569" height="99.4009" rx="20" fill="black"/>
</g>
<rect x="78" y="75" width="109.817" height="109.803" rx="20" fill="white"/>
<path d="M146.559 121.955H164.145C165.806 121.955 167.153 123.307 167.153 124.975V141.053C167.153 147.183 162.203 152.151 156.097 152.151H156.044C149.938 152.152 144.987 147.184 144.986 141.055C144.986 141.054 144.986 141.054 144.986 141.053V123.533C144.986 122.662 145.69 121.955 146.559 121.955Z" fill="#5059C9"/>
<path d="M158.444 118.777C162.379 118.777 165.569 115.575 165.569 111.626C165.569 107.676 162.379 104.474 158.444 104.474C154.509 104.474 151.319 107.676 151.319 111.626C151.319 115.575 154.509 118.777 158.444 118.777Z" fill="#5059C9"/>
<path d="M136.277 118.777C141.961 118.777 146.569 114.152 146.569 108.446C146.569 102.741 141.961 98.1162 136.277 98.1162C130.593 98.1162 125.985 102.741 125.985 108.446C125.985 114.152 130.593 118.777 136.277 118.777Z" fill="#7B83EB"/>
<path d="M150.001 121.955H120.972C119.33 121.996 118.031 123.364 118.069 125.011V143.35C117.84 153.239 125.635 161.445 135.486 161.687C145.338 161.445 153.132 153.239 152.903 143.35V125.011C152.941 123.364 151.642 121.996 150.001 121.955Z" fill="#7B83EB"/>
<path opacity="0.1" d="M137.069 121.955V147.654C137.062 148.832 136.35 149.891 135.264 150.34C134.919 150.486 134.547 150.562 134.172 150.562H119.463C119.257 150.038 119.067 149.513 118.908 148.973C118.354 147.149 118.071 145.253 118.069 143.347V125.007C118.031 123.361 119.328 121.996 120.967 121.955H137.069Z" fill="black"/>
<path opacity="0.2" d="M135.486 121.955V149.243C135.486 149.62 135.411 149.992 135.265 150.339C134.817 151.429 133.763 152.143 132.589 152.151H120.207C119.938 151.627 119.684 151.102 119.463 150.562C119.241 150.022 119.067 149.513 118.908 148.973C118.354 147.149 118.071 145.253 118.069 143.347V125.007C118.031 123.361 119.328 121.996 120.967 121.955H135.486Z" fill="black"/>
<path opacity="0.2" d="M135.486 121.955V146.064C135.474 147.666 134.184 148.961 132.589 148.973H118.908C118.354 147.149 118.071 145.253 118.069 143.347V125.007C118.031 123.361 119.328 121.996 120.967 121.955H135.486Z" fill="black"/>
<path opacity="0.2" d="M133.903 121.955V146.064C133.891 147.666 132.6 148.961 131.005 148.973H118.908C118.354 147.149 118.071 145.253 118.069 143.347V125.007C118.031 123.361 119.328 121.996 120.967 121.955H133.903Z" fill="black"/>
<path opacity="0.1" d="M137.07 113.739V118.746C136.801 118.762 136.548 118.778 136.278 118.778C136.009 118.778 135.756 118.762 135.487 118.746C134.952 118.71 134.422 118.625 133.903 118.492C130.697 117.729 128.048 115.472 126.778 112.42C126.56 111.907 126.39 111.375 126.271 110.831H134.172C135.77 110.837 137.064 112.135 137.07 113.739Z" fill="black"/>
<path opacity="0.2" d="M135.485 115.328V118.746C134.95 118.71 134.42 118.625 133.901 118.492C130.695 117.729 128.046 115.472 126.776 112.42H132.587C134.185 112.426 135.479 113.724 135.485 115.328Z" fill="black"/>
<path opacity="0.2" d="M135.485 115.328V118.746C134.95 118.71 134.42 118.625 133.901 118.492C130.695 117.729 128.046 115.472 126.776 112.42H132.587C134.185 112.426 135.479 113.724 135.485 115.328Z" fill="black"/>
<path opacity="0.2" d="M133.901 115.328V118.491C130.695 117.729 128.046 115.472 126.776 112.42H131.004C132.602 112.426 133.895 113.725 133.901 115.328Z" fill="black"/>
<path d="M101.971 112.42H131C132.603 112.42 133.902 113.724 133.902 115.333V144.47C133.902 146.079 132.603 147.384 131 147.384H101.971C100.368 147.384 99.0684 146.079 99.0684 144.47V115.333C99.0684 113.724 100.368 112.42 101.971 112.42Z" fill="url(#paint0_linear)"/>
<path d="M124.123 123.509H118.32V139.37H114.623V123.509H108.847V120.433H124.123V123.509Z" fill="white"/>
<g opacity="0.2" filter="url(#filter4_f)">
<rect x="283" y="132" width="345" height="153" rx="20" fill="black"/>
</g>
<rect x="272" y="133" width="356" height="137" rx="20" fill="white"/>
<path d="M412.944 193.109V184.409H403.525V228.072H412.944V205.256C413.204 202.739 413.968 200.55 415.238 198.676C416.493 196.802 418.214 195.365 420.371 194.381C422.542 193.383 425.081 192.959 428.016 193.109V184.08C424.562 184.08 421.559 184.847 419.006 186.378C416.453 187.898 414.432 190.14 412.944 193.109ZM386.053 174.068H376.716V186.05H370.573V193.109H376.716V212.364C376.716 221.004 383.77 228.072 392.392 228.072H394.841V218.716H392.711C389.049 218.716 386.053 215.713 386.053 212.045V193.11H396.509V186.051H386.053V174.068V174.068ZM467.596 191.057C465.945 188.814 463.761 187.09 461.043 185.886C458.327 184.696 455.05 184.095 451.228 184.08C447.978 184.109 445.016 184.668 442.327 185.736C439.638 186.803 437.317 188.321 435.365 190.277C433.4 192.233 431.883 194.573 430.819 197.281C429.755 199.989 429.208 203.012 429.195 206.322C429.209 209.619 429.742 212.614 430.792 215.309C431.844 218.004 433.345 220.329 435.297 222.285C437.25 224.241 439.597 225.746 442.328 226.8C445.059 227.853 448.102 228.386 451.474 228.4C455.255 228.386 458.668 227.743 461.713 226.457C464.756 225.186 467.35 223.366 469.494 221.014L464.497 215.679C462.887 217.334 461.03 218.592 458.942 219.454C456.853 220.329 454.6 220.768 452.211 220.768C449.905 220.754 447.829 220.316 445.972 219.427C444.13 218.552 442.573 217.307 441.331 215.679C440.075 214.05 439.201 212.108 438.696 209.851H471.623C471.909 205.898 471.732 202.341 471.076 199.181C470.422 196.008 469.261 193.3 467.596 191.057ZM438.531 202.958C438.9 200.618 439.651 198.608 440.784 196.925C441.93 195.229 443.392 193.93 445.181 193.013C446.968 192.097 449.003 191.645 451.309 191.632C453.698 191.645 455.773 192.097 457.547 192.999C459.322 193.902 460.715 195.202 461.724 196.884C462.749 198.566 463.308 200.591 463.431 202.958H438.531ZM546.694 205.912C546.694 207.827 546.421 209.606 545.889 211.233C545.355 212.874 544.564 214.297 543.54 215.529C542.516 216.746 541.261 217.717 539.787 218.416C538.312 219.112 536.62 219.482 534.736 219.537C532.62 219.523 530.817 219.098 529.303 218.251C527.787 217.403 526.627 216.185 525.807 214.613C525.002 213.039 524.592 211.151 524.579 208.95V184.409H515.158V211.575C515.172 215.064 515.815 218.06 517.084 220.576C518.353 223.079 520.168 225.007 522.544 226.348C524.933 227.702 527.786 228.386 531.13 228.4C534.708 228.372 537.833 227.649 540.482 226.212C543.13 224.789 545.205 222.56 546.693 219.537V228.072H556.113V184.409H546.693V205.912H546.694ZM594.705 209.783C593.886 208.266 592.779 207.02 591.415 206.035C590.05 205.064 588.547 204.256 586.909 203.628C585.258 202.999 583.619 202.451 581.981 201.972C580.343 201.507 578.827 201.014 577.449 200.522C576.084 200.017 574.978 199.401 574.145 198.675C573.311 197.963 572.889 197.035 572.862 195.9C572.876 194.858 573.149 194.025 573.695 193.382C574.24 192.739 575.005 192.274 575.961 191.987C576.917 191.685 578.009 191.549 579.251 191.549C580.547 191.549 581.912 191.714 583.36 192.014C584.793 192.329 586.24 192.765 587.673 193.341C589.121 193.914 590.486 194.612 591.783 195.407L595.222 188.43C593.898 187.499 592.41 186.693 590.745 186.036C589.079 185.38 587.333 184.873 585.504 184.532C583.674 184.176 581.831 183.998 579.989 183.998C577.886 183.998 575.866 184.231 573.955 184.724C572.044 185.217 570.337 185.968 568.836 186.994C567.322 188.02 566.147 189.319 565.273 190.92C564.4 192.52 563.949 194.422 563.936 196.638C563.95 198.867 564.358 200.728 565.178 202.218C565.997 203.71 567.076 204.927 568.427 205.871C569.779 206.815 571.28 207.58 572.891 208.183C574.515 208.784 576.14 209.318 577.765 209.783C579.389 210.248 580.89 210.741 582.242 211.273C583.606 211.808 584.699 212.464 585.518 213.258C586.337 214.05 586.76 215.076 586.787 216.335C586.774 217.429 586.459 218.318 585.831 219.001C585.204 219.699 584.357 220.206 583.292 220.534C582.228 220.848 581.013 221.013 579.661 221.013C578.051 221.013 576.371 220.793 574.61 220.355C572.849 219.918 571.129 219.303 569.477 218.495C567.825 217.689 566.365 216.717 565.081 215.596L561.723 222.325C563.184 223.639 564.877 224.747 566.774 225.649C568.686 226.552 570.705 227.236 572.835 227.701C574.965 228.167 577.108 228.399 579.252 228.399C581.464 228.399 583.566 228.139 585.559 227.632C587.552 227.112 589.34 226.333 590.897 225.265C592.453 224.213 593.681 222.859 594.583 221.23C595.484 219.602 595.947 217.661 595.961 215.43C595.947 213.189 595.537 211.302 594.705 209.783ZM478.292 228.072H487.712V167.174H478.292V228.072ZM497.416 228.072H506.836V167.174H497.416V228.072Z" fill="#4B5D64"/>
<path fill-rule="evenodd" clip-rule="evenodd" d="M335.514 186.997C335.516 189.012 335.514 190.984 335.514 192.998C339.813 193.47 344.113 193.959 348.412 194.43C348.416 198.346 348.412 195.807 348.419 200.247C348.42 201.534 347.466 202.81 346.006 202.776C341.661 202.663 337.314 202.569 332.967 202.468C332.947 195.513 332.954 188.557 332.946 181.603C332.944 175.856 327.404 170.77 321.887 169.144C311.578 166.105 301.348 162.82 291.04 159.776C291.04 164.759 291.04 169.742 291.04 174.725C291.04 183.827 300.654 189.392 309.277 190.351C314.829 190.968 320.393 191.333 325.945 191.935C325.947 195.393 325.951 198.849 325.952 202.305C323.775 202.255 321.599 202.205 319.424 202.155C312.69 201.992 305.224 206.55 305.226 213.399C305.231 223.34 305.241 233.281 305.241 243.223C310.805 241.588 316.371 239.949 321.935 238.311C327.435 236.695 332.991 231.592 332.985 225.861C332.984 222.942 332.979 219.464 332.977 216.545C332.976 214.793 332.975 213.041 332.975 211.29C330.636 211.406 328.295 211.343 325.956 211.459C325.956 216.165 325.966 221.433 325.966 226.14C325.966 228.566 324.171 231.073 321.601 231.706C319.252 232.287 316.904 232.866 314.556 233.445C314.555 226.602 314.546 219.757 314.543 212.914C314.541 210.574 317.137 208.964 319.425 208.914C328.286 208.696 337.149 208.482 346.01 208.267C350.38 208.165 353.352 204.418 353.346 200.465C353.341 196.921 353.34 193.374 353.331 189.831C347.392 188.891 341.454 187.936 335.514 186.997ZM309.445 182.853C305.565 182.237 302.888 180.291 302.888 176.368C302.888 174.625 302.887 172.884 302.887 171.142C309.112 172.679 315.334 174.219 321.557 175.756C323.659 176.276 325.933 178.471 325.934 180.651C325.94 182.353 325.94 183.775 325.941 185.475C320.443 184.601 314.943 183.727 309.445 182.853Z" fill="#A1CA43"/>
<path d="M187 131.5H217.5V212.5M187 284H217.5V212.5M217.5 212.5H271.5" stroke="#A1CA43" stroke-width="10"/>
<path d="M711.5 131.5H681V212.5M711.5 284H681V212.5M681 212.5H627" stroke="#A1CA43" stroke-width="10"/>
</g>
<defs>
<filter id="filter0_f" x="512" y="-106.351" width="493.055" height="499.401" filterUnits="userSpaceOnUse" color-interpolation-filters="sRGB">
<feFlood flood-opacity="0" result="BackgroundImageFix"/>
<feBlend mode="normal" in="SourceGraphic" in2="BackgroundImageFix" result="shape"/>
<feGaussianBlur stdDeviation="100" result="effect1_foregroundBlur"/>
</filter>
<filter id="filter1_f" x="477.027" y="-2.35181" width="594.789" height="599.401" filterUnits="userSpaceOnUse" color-interpolation-filters="sRGB">
<feFlood flood-opacity="0" result="BackgroundImageFix"/>
<feBlend mode="normal" in="SourceGraphic" in2="BackgroundImageFix" result="shape"/>
<feGaussianBlur stdDeviation="125" result="effect1_foregroundBlur"/>
</filter>
<filter id="filter2_f" x="-172" y="-2.35083" width="593.055" height="599.401" filterUnits="userSpaceOnUse" color-interpolation-filters="sRGB">
<feFlood flood-opacity="0" result="BackgroundImageFix"/>
<feBlend mode="normal" in="SourceGraphic" in2="BackgroundImageFix" result="shape"/>
<feGaussianBlur stdDeviation="125" result="effect1_foregroundBlur"/>
</filter>
<filter id="filter3_f" x="-160.439" y="-155.351" width="598.257" height="599.401" filterUnits="userSpaceOnUse" color-interpolation-filters="sRGB">
<feFlood flood-opacity="0" result="BackgroundImageFix"/>
<feBlend mode="normal" in="SourceGraphic" in2="BackgroundImageFix" result="shape"/>
<feGaussianBlur stdDeviation="125" result="effect1_foregroundBlur"/>
</filter>
<filter id="filter4_f" x="83" y="-68" width="745" height="553" filterUnits="userSpaceOnUse" color-interpolation-filters="sRGB">
<feFlood flood-opacity="0" result="BackgroundImageFix"/>
<feBlend mode="normal" in="SourceGraphic" in2="BackgroundImageFix" result="shape"/>
<feGaussianBlur stdDeviation="100" result="effect1_foregroundBlur"/>
</filter>
<linearGradient id="paint0_linear" x1="105.12" y1="110.143" x2="127.978" y2="149.586" gradientUnits="userSpaceOnUse">
<stop stop-color="#5A62C3"/>
<stop offset="0.5" stop-color="#4D55BD"/>
<stop offset="1" stop-color="#3940AB"/>
</linearGradient>
<clipPath id="clip0">
<rect width="897" height="414" fill="white"/>
</clipPath>
<clipPath id="clip1">
<rect width="63.5968" height="62.1256" fill="white" transform="translate(735.119 98.2725)"/>
</clipPath>
</defs>
</svg>
