<svg width="85" height="114" viewBox="0 0 85 114" fill="none" xmlns="http://www.w3.org/2000/svg">
<path fill-rule="evenodd" clip-rule="evenodd" d="M60.657 37.052C60.66 39.794 60.657 42.478 60.657 45.22C66.521 45.862 72.385 46.528 78.249 47.169C78.254 52.499 78.249 49.043 78.259 55.086C78.26 56.838 76.959 58.575 74.968 58.529C69.042 58.375 63.112 58.247 57.184 58.109C57.157 48.643 57.166 39.175 57.155 29.71C57.152 21.887 49.597 14.964 42.072 12.751C28.011 8.614 14.059 4.143 0 0C0 6.782 0 13.565 0 20.347C0 32.737 13.113 40.311 24.873 41.617C32.446 42.457 40.034 42.953 47.606 43.773C47.609 48.479 47.614 53.183 47.616 57.888C44.647 57.82 41.679 57.752 38.712 57.683C29.528 57.462 19.346 63.666 19.348 72.988C19.355 86.519 19.368 100.051 19.368 113.583C26.957 111.358 34.549 109.127 42.137 106.897C49.639 104.697 57.217 97.751 57.208 89.951C57.207 85.977 57.2 81.244 57.197 77.271C57.196 74.886 57.194 72.501 57.194 70.118C54.004 70.276 50.812 70.19 47.622 70.347C47.622 76.753 47.635 83.923 47.635 90.33C47.635 93.633 45.187 97.045 41.682 97.907C38.478 98.697 35.275 99.485 32.073 100.274C32.072 90.959 32.059 81.642 32.055 72.328C32.053 69.143 35.593 66.952 38.714 66.883C50.799 66.587 62.888 66.295 74.973 66.003C80.933 65.864 84.986 60.764 84.978 55.383C84.971 50.56 84.97 45.732 84.958 40.909C76.858 39.629 68.759 38.329 60.657 37.052ZM25.102 31.411C19.811 30.573 16.159 27.924 16.159 22.584C16.159 20.212 16.158 17.841 16.158 15.471C24.648 17.562 33.134 19.659 41.622 21.751C44.489 22.458 47.59 25.446 47.591 28.414C47.599 30.73 47.599 32.666 47.601 34.98C40.102 33.79 32.601 32.6 25.102 31.411Z" fill="#A1CA43"/>
</svg>
