<svg xmlns="http://www.w3.org/2000/svg" viewBox="0 0 512 512"><g id="a8cc1349-9f30-4f70-95be-f39cc8750eb9" data-name="Layer 1"><path d="M161.76,228l21.69,8.36a45.41,45.41,0,0,1,27.18,29l27.84,88.31h35l27.86-88.32a45.38,45.38,0,0,1,27.17-29L350.24,228l22.16-60a14.6,14.6,0,0,1,3.12-5,151.44,151.44,0,0,0-239,0,14.6,14.6,0,0,1,3.12,5Zm116,4.73,21.72-23.28a2,2,0,0,1,2.93,2.73L280.65,235.5a2,2,0,0,1-1.46.63,2,2,0,0,1-1.37-.54A2,2,0,0,1,277.73,232.77Zm-24.15-38.61a2,2,0,0,1,2.07,1.93l1,29.2a2,2,0,0,1-1.93,2.07h-.07a2,2,0,0,1-2-1.93l-1-29.2A2,2,0,0,1,253.58,194.16Zm-49.87,16.92a2,2,0,0,1,2.83-.1l21.35,19.94a2,2,0,1,1-2.73,2.92l-21.35-19.93A2,2,0,0,1,203.71,211.08Z" fill="#e7f2d0"/><path d="M208.92,400a152.1,152.1,0,0,0,94.16,0H208.92Z" fill="#e7f2d0"/><path d="M143.3,353.71H164L160,321l-44.37-28a92.67,92.67,0,0,1-7.83-5.54A150.86,150.86,0,0,0,141.43,355,2,2,0,0,1,143.3,353.71Z" fill="#e7f2d0"/><path d="M352,321l-3.92,32.74H368.7a2,2,0,0,1,1.87,1.32,150.86,150.86,0,0,0,33.6-67.61,92.67,92.67,0,0,1-7.83,5.54Z" fill="#e7f2d0"/><path d="M124.09,162.69l-2,.37L143.48,221l13.31,5.13-20.94-56.75A10.49,10.49,0,0,0,124.09,162.69Z" fill="#a1ca43"/><path d="M122.1,163.06l2-.37a10.49,10.49,0,0,1,11.76,6.69l20.94,56.75,5,1.91L139.6,168a14.5,14.5,0,0,0-16.24-9.24l-2.67.49Z"/><path d="M110.25,142.53a10.47,10.47,0,0,0-11.75-6.69l-6.84,1.26,32.57,76.48,14.28,5.5Z" fill="#a1ca43"/><path d="M91.66,137.1l6.84-1.26a10.47,10.47,0,0,1,11.75,6.69l28.26,76.55,5,1.92L122.1,163.06l-1.41-3.81L114,141.14a14.48,14.48,0,0,0-16.24-9.24l-7.71,1.43Z"/><path d="M182,240.13,124,217.77l-.28.82a27.17,27.17,0,0,0,14.76,33.5l17,7.57a2,2,0,0,1-.82,3.83,2.1,2.1,0,0,1-.81-.17l-17-7.58a31.13,31.13,0,0,1-16.93-38.42l.69-2.09L80.85,121.92A9.63,9.63,0,0,0,72,116a9.85,9.85,0,0,0-1.7.15,9.74,9.74,0,0,0-7.9,11c3.6,23.72,10.41,68.44,15.5,101.51a87.82,87.82,0,0,0,39.93,60.9L163,318.1a2,2,0,0,1,.92,1.45L168,353.71h66.3L206.81,266.6A41.46,41.46,0,0,0,182,240.13Z" fill="#a1ca43"/><path d="M160,321,164,353.71h4l-4.09-34.16a2,2,0,0,0-.92-1.45L117.8,289.58a87.82,87.82,0,0,1-39.93-60.9c-5.09-33.07-11.9-77.79-15.5-101.51a9.74,9.74,0,0,1,7.9-11A9.85,9.85,0,0,1,72,116a9.63,9.63,0,0,1,8.88,5.89l39.73,93.31.24-.72a2,2,0,0,1,3.8,1.27l-.66,2L182,240.13a41.46,41.46,0,0,1,24.79,26.47l27.47,87.11h4.19L210.63,265.4a45.41,45.41,0,0,0-27.18-29L161.76,228l-5-1.91L143.48,221l-5-1.92-14.28-5.5L91.66,137.1l-1.6-3.77-5.53-13a13.63,13.63,0,0,0-15-8.12,13.77,13.77,0,0,0-11.17,15.53C62,151.49,68.83,196.22,73.92,229.29A91.93,91.93,0,0,0,115.66,293Z"/><path d="M136.82,255.74l17,7.58a2.1,2.1,0,0,0,.81.17,2,2,0,0,0,.82-3.83l-17-7.57a27.17,27.17,0,0,1-14.76-33.5l.28-.82.66-2a2,2,0,0,0-3.8-1.27l-.24.72-.69,2.09A31.13,31.13,0,0,0,136.82,255.74Z"/><rect x="145.3" y="357.71" width="108.7" height="38.26" fill="#4b5d64"/><path d="M254,398v-2H145.3V357.71H254v-2a2,2,0,0,1,2-2H143.3a2,2,0,0,0-1.87,1.32,1.91,1.91,0,0,0-.13.68V398a2,2,0,0,0,2,2H256A2,2,0,0,1,254,398Z"/><path d="M389.9,163.06l-2-.37a10.48,10.48,0,0,0-11.76,6.69l-20.94,56.75L368.52,221Z" fill="#a1ca43"/><path d="M350.24,228l5-1.91,20.94-56.75a10.48,10.48,0,0,1,11.76-6.69l2,.37,1.41-3.81-2.67-.49A14.45,14.45,0,0,0,375.52,163a14.6,14.6,0,0,0-3.12,5Z"/><path d="M401.75,142.53l-28.26,76.55,14.28-5.5,32.57-76.48-6.84-1.26A10.47,10.47,0,0,0,401.75,142.53Z" fill="#a1ca43"/><path d="M389.9,163.06,368.52,221l5-1.92,28.26-76.55a10.47,10.47,0,0,1,11.75-6.69l6.84,1.26,1.6-3.77-7.71-1.43A14.48,14.48,0,0,0,398,141.14l-6.68,18.11Z"/><path d="M348.11,319.55a2,2,0,0,1,.92-1.45l45.17-28.52a87.82,87.82,0,0,0,39.93-60.9c5.09-33.07,11.9-77.79,15.5-101.51a9.74,9.74,0,0,0-7.9-11,9.64,9.64,0,0,0-10.58,5.74l-39.73,93.31.69,2.09a31.13,31.13,0,0,1-16.93,38.42l-17,7.58a2.1,2.1,0,0,1-.81.17,2,2,0,0,1-.82-3.83l17-7.57a27.17,27.17,0,0,0,14.76-33.5l-.28-.82L330,240.13a41.46,41.46,0,0,0-24.79,26.46l-27.47,87.12H344Z" fill="#a1ca43"/><path d="M442.42,112.24a13.63,13.63,0,0,0-14.95,8.12l-5.53,13-1.6,3.77-32.57,76.48-14.28,5.5-5,1.92-13.31,5.13-5,1.91-21.69,8.36a45.38,45.38,0,0,0-27.17,29l-27.86,88.32h4.2l27.47-87.12A41.46,41.46,0,0,1,330,240.13L388,217.77l-.66-2a2,2,0,0,1,3.8-1.27l.24.72,39.73-93.31a9.64,9.64,0,0,1,10.58-5.74,9.74,9.74,0,0,1,7.9,11c-3.6,23.72-10.41,68.44-15.5,101.51a87.82,87.82,0,0,1-39.93,60.9L349,318.1a2,2,0,0,0-.92,1.45L344,353.71h4L352,321l44.37-28a91.93,91.93,0,0,0,41.74-63.67c5.09-33.07,11.9-77.8,15.51-101.52A13.77,13.77,0,0,0,442.42,112.24Z"/><path d="M373.56,252.09l-17,7.57a2,2,0,0,0,.82,3.83,2.1,2.1,0,0,0,.81-.17l17-7.58a31.13,31.13,0,0,0,16.93-38.42l-.69-2.09-.24-.72a2,2,0,0,0-3.8,1.27l.66,2,.28.82A27.17,27.17,0,0,1,373.56,252.09Z"/><rect x="258" y="357.71" width="108.7" height="38.26" fill="#4b5d64"/><path d="M368.7,353.71H256a2,2,0,0,0-2,2V398a2,2,0,0,0,2,2H368.7a2,2,0,0,0,2-2V355.71a1.91,1.91,0,0,0-.13-.68A2,2,0,0,0,368.7,353.71Zm-2,42.26H258V357.71H366.7Z"/><path d="M254.66,227.36h.07a2,2,0,0,0,1.93-2.07l-1-29.2a2,2,0,1,0-4,.14l1,29.2A2,2,0,0,0,254.66,227.36Z"/><path d="M225.16,233.84a2,2,0,0,0,1.37.54,2,2,0,0,0,1.36-3.46L206.54,211a2,2,0,1,0-2.73,2.93Z"/><path d="M279.19,236.13a2,2,0,0,0,1.46-.63l21.73-23.28a2,2,0,0,0-2.93-2.73l-21.72,23.28a2,2,0,0,0,.09,2.82A2,2,0,0,0,279.19,236.13Z"/></g></svg>